<svg xmlns="http://www.w3.org/2000/svg" xmlns:xlink="http://www.w3.org/1999/xlink" width="1000" zoomAndPan="magnify" viewBox="0 0 750 374.999991" height="500" preserveAspectRatio="xMidYMid meet" version="1.0"><defs><g/><clipPath id="b226a33a43"><path d="M 49 132.9375 L 165.875 132.9375 L 165.875 261.1875 L 49 261.1875 Z M 49 132.9375 " clip-rule="nonzero"/></clipPath><clipPath id="e3b271713a"><path d="M 189.539062 132.9375 L 306.539062 132.9375 L 306.539062 261.1875 L 189.539062 261.1875 Z M 189.539062 132.9375 " clip-rule="nonzero"/></clipPath><clipPath id="a857b27d01"><path d="M 596 132.9375 L 712.863281 132.9375 L 712.863281 261.1875 L 596 261.1875 Z M 596 132.9375 " clip-rule="nonzero"/></clipPath><clipPath id="cdbe9fb6b9"><path d="M 460.191406 132.9375 L 577.191406 132.9375 L 577.191406 261.1875 L 460.191406 261.1875 Z M 460.191406 132.9375 " clip-rule="nonzero"/></clipPath><clipPath id="f906660068"><path d="M 325 132.9375 L 441.863281 132.9375 L 441.863281 261.1875 L 325 261.1875 Z M 325 132.9375 " clip-rule="nonzero"/></clipPath></defs><path fill="#ffbd59" d="M 142.960938 136.542969 C 142.960938 136 142.984375 135.464844 143.019531 134.933594 C 143 134.929688 142.980469 134.925781 142.960938 134.925781 L 107.371094 135.007812 L 71.773438 134.921875 C 71.757812 134.925781 71.773438 136 71.773438 136.542969 C 71.773438 148.476562 62.664062 158.285156 51.019531 159.398438 C 55.507812 207.921875 74.835938 240.261719 107.089844 259.054688 C 107.183594 258.957031 107.273438 258.859375 107.367188 258.761719 C 107.457031 258.859375 107.550781 258.957031 107.644531 259.054688 C 139.898438 240.261719 159.230469 207.921875 163.714844 159.398438 C 152.070312 158.285156 142.960938 148.476562 142.960938 136.542969 Z M 142.960938 136.542969 " fill-opacity="1" fill-rule="nonzero"/><g clip-path="url(#b226a33a43)"><path fill="#ff914d" d="M 107.089844 261.042969 C 106.746094 261.042969 106.402344 260.953125 106.089844 260.773438 C 89.523438 251.117188 76.34375 237.859375 66.917969 221.363281 C 57.289062 204.503906 51.273438 183.71875 49.042969 159.582031 C 48.941406 158.492188 49.742188 157.527344 50.832031 157.421875 C 55.996094 156.929688 60.78125 154.539062 64.296875 150.691406 C 67.839844 146.816406 69.789062 141.792969 69.789062 136.542969 C 69.789062 136.363281 69.785156 136.132812 69.785156 135.898438 C 69.78125 135.652344 69.777344 135.40625 69.777344 135.222656 C 69.777344 133.414062 70.960938 133.035156 71.472656 132.960938 C 71.574219 132.945312 71.675781 132.9375 71.777344 132.9375 L 107.375 133.023438 L 142.957031 132.9375 C 143.050781 132.9375 143.160156 132.945312 143.265625 132.960938 L 143.320312 132.96875 C 144.339844 133.125 145.070312 134.039062 145 135.066406 C 144.964844 135.566406 144.949219 136.066406 144.949219 136.542969 C 144.949219 141.792969 146.898438 146.816406 150.4375 150.691406 C 153.953125 154.539062 158.734375 156.929688 163.902344 157.421875 C 164.992188 157.527344 165.792969 158.492188 165.691406 159.582031 C 163.457031 183.71875 157.445312 204.503906 147.816406 221.363281 C 138.394531 237.859375 125.214844 251.117188 108.644531 260.773438 C 108.25 261.003906 107.796875 261.082031 107.367188 261.023438 C 107.277344 261.035156 107.183594 261.042969 107.089844 261.042969 Z M 107.371094 256.777344 C 107.441406 256.777344 107.511719 256.78125 107.585938 256.789062 C 123.101562 247.539062 135.476562 234.960938 144.371094 219.390625 C 153.464844 203.46875 159.242188 183.867188 161.554688 161.109375 C 156.167969 160.15625 151.238281 157.453125 147.507812 153.371094 C 143.378906 148.855469 141.070312 143.023438 140.980469 136.914062 L 107.375 136.996094 L 73.757812 136.914062 C 73.671875 143.023438 71.359375 148.851562 67.234375 153.371094 C 63.5 157.449219 58.570312 160.15625 53.1875 161.109375 C 55.496094 183.867188 61.277344 203.46875 70.371094 219.390625 C 79.261719 234.960938 91.636719 247.539062 107.15625 256.789062 C 107.222656 256.777344 107.296875 256.777344 107.371094 256.777344 C 107.367188 256.777344 107.371094 256.777344 107.371094 256.777344 Z M 107.371094 256.777344 " fill-opacity="1" fill-rule="nonzero"/></g><path fill="#ffbd59" d="M 283.625 136.542969 C 283.625 136 283.648438 135.464844 283.683594 134.933594 C 283.664062 134.929688 283.644531 134.925781 283.625 134.925781 L 248.035156 135.007812 L 212.4375 134.921875 C 212.421875 134.925781 212.4375 136 212.4375 136.542969 C 212.4375 148.476562 203.332031 158.285156 191.6875 159.398438 C 196.171875 207.921875 215.5 240.261719 247.753906 259.054688 C 247.847656 258.957031 247.9375 258.859375 248.03125 258.761719 C 248.125 258.859375 248.214844 258.957031 248.308594 259.054688 C 280.566406 240.261719 299.894531 207.921875 304.378906 159.398438 C 292.734375 158.285156 283.625 148.476562 283.625 136.542969 Z M 283.625 136.542969 " fill-opacity="1" fill-rule="nonzero"/><g clip-path="url(#e3b271713a)"><path fill="#ff914d" d="M 247.753906 261.042969 C 247.410156 261.042969 247.066406 260.953125 246.753906 260.773438 C 230.1875 251.117188 217.007812 237.859375 207.582031 221.363281 C 197.957031 204.503906 191.941406 183.71875 189.707031 159.582031 C 189.609375 158.492188 190.40625 157.527344 191.496094 157.421875 C 196.660156 156.929688 201.445312 154.539062 204.960938 150.691406 C 208.503906 146.816406 210.453125 141.792969 210.453125 136.542969 C 210.453125 136.363281 210.449219 136.132812 210.449219 135.898438 C 210.445312 135.652344 210.441406 135.40625 210.441406 135.222656 C 210.441406 133.414062 211.625 133.035156 212.136719 132.960938 C 212.238281 132.945312 212.339844 132.9375 212.445312 132.9375 L 248.039062 133.023438 L 283.621094 132.9375 C 283.714844 132.9375 283.828125 132.945312 283.929688 132.960938 L 283.984375 132.96875 C 285.003906 133.125 285.734375 134.039062 285.664062 135.066406 C 285.628906 135.566406 285.613281 136.066406 285.613281 136.542969 C 285.613281 141.792969 287.5625 146.816406 291.101562 150.691406 C 294.617188 154.539062 299.398438 156.929688 304.566406 157.421875 C 305.65625 157.527344 306.457031 158.492188 306.355469 159.582031 C 304.125 183.71875 298.109375 204.503906 288.480469 221.363281 C 279.058594 237.859375 265.878906 251.117188 249.308594 260.773438 C 248.914062 261.003906 248.460938 261.082031 248.03125 261.023438 C 247.941406 261.035156 247.847656 261.042969 247.753906 261.042969 Z M 248.035156 256.777344 C 248.105469 256.777344 248.175781 256.78125 248.25 256.789062 C 263.769531 247.539062 276.140625 234.960938 285.035156 219.390625 C 294.132812 203.46875 299.910156 183.867188 302.21875 161.109375 C 296.835938 160.15625 291.90625 157.453125 288.171875 153.371094 C 284.042969 148.855469 281.734375 143.023438 281.644531 136.914062 L 248.039062 136.996094 L 214.425781 136.914062 C 214.335938 143.023438 212.023438 148.851562 207.898438 153.371094 C 204.164062 157.449219 199.238281 160.15625 193.851562 161.109375 C 196.160156 183.867188 201.941406 203.46875 211.035156 219.390625 C 219.929688 234.960938 232.300781 247.539062 247.820312 256.789062 C 247.886719 256.777344 247.960938 256.777344 248.035156 256.777344 C 248.03125 256.777344 248.035156 256.777344 248.035156 256.777344 Z M 248.035156 256.777344 " fill-opacity="1" fill-rule="nonzero"/></g><g fill="#000000" fill-opacity="1"><g transform="translate(82.546351, 181.645301)"><g><path d="M 5.5625 0.234375 C 4.570312 0.234375 3.691406 0.00390625 2.921875 -0.453125 C 2.160156 -0.921875 1.566406 -1.550781 1.140625 -2.34375 C 0.722656 -3.144531 0.515625 -4.035156 0.515625 -5.015625 C 0.515625 -5.941406 0.710938 -6.828125 1.109375 -7.671875 C 1.503906 -8.523438 2.085938 -9.21875 2.859375 -9.75 C 3.640625 -10.28125 4.578125 -10.546875 5.671875 -10.546875 C 6.066406 -10.546875 6.488281 -10.484375 6.9375 -10.359375 C 7.394531 -10.234375 7.816406 -10.054688 8.203125 -9.828125 L 8.21875 -9.828125 L 8.15625 -10.453125 L 9.296875 -10.453125 L 9.296875 -7.015625 L 8.34375 -7.015625 C 8.070312 -8.640625 7.242188 -9.460938 5.859375 -9.484375 C 5.203125 -9.484375 4.644531 -9.289062 4.1875 -8.90625 C 3.726562 -8.519531 3.382812 -8.003906 3.15625 -7.359375 C 2.9375 -6.722656 2.828125 -6.035156 2.828125 -5.296875 C 2.828125 -4.453125 2.945312 -3.703125 3.1875 -3.046875 C 3.4375 -2.390625 3.789062 -1.875 4.25 -1.5 C 4.71875 -1.132812 5.273438 -0.953125 5.921875 -0.953125 C 6.546875 -0.953125 7.160156 -1.113281 7.765625 -1.4375 C 8.367188 -1.769531 8.878906 -2.210938 9.296875 -2.765625 L 10 -2.125 C 9.351562 -1.226562 8.640625 -0.609375 7.859375 -0.265625 C 7.085938 0.0664062 6.320312 0.234375 5.5625 0.234375 Z M 5.5625 0.234375 "/></g></g></g><g fill="#000000" fill-opacity="1"><g transform="translate(92.672827, 181.645301)"><g><path d="M 2.6875 -8.828125 C 2.351562 -8.828125 2.078125 -8.941406 1.859375 -9.171875 C 1.640625 -9.398438 1.53125 -9.679688 1.53125 -10.015625 C 1.53125 -10.347656 1.640625 -10.632812 1.859375 -10.875 C 2.085938 -11.125 2.359375 -11.25 2.671875 -11.25 C 2.984375 -11.25 3.242188 -11.128906 3.453125 -10.890625 C 3.660156 -10.648438 3.765625 -10.359375 3.765625 -10.015625 C 3.765625 -9.671875 3.664062 -9.382812 3.46875 -9.15625 C 3.269531 -8.9375 3.007812 -8.828125 2.6875 -8.828125 Z M 0.609375 -0.953125 C 0.972656 -0.953125 1.207031 -1.054688 1.3125 -1.265625 C 1.414062 -1.472656 1.46875 -1.804688 1.46875 -2.265625 L 1.46875 -4.71875 C 1.46875 -5.175781 1.488281 -5.601562 1.53125 -6 L 0.5 -5.953125 L 0.5 -7.078125 C 1.113281 -7.078125 1.613281 -7.117188 2 -7.203125 C 2.382812 -7.296875 2.640625 -7.398438 2.765625 -7.515625 L 3.5625 -7.515625 L 3.5625 -2.375 C 3.5625 -1.90625 3.539062 -1.472656 3.5 -1.078125 C 3.820312 -1.109375 4.144531 -1.125 4.46875 -1.125 L 4.46875 0 L 0.609375 0 Z M 0.609375 -0.953125 "/></g></g></g><g fill="#000000" fill-opacity="1"><g transform="translate(97.485845, 181.645301)"><g><path d="M 0.609375 -0.953125 C 0.972656 -0.953125 1.207031 -1.054688 1.3125 -1.265625 C 1.414062 -1.472656 1.46875 -1.804688 1.46875 -2.265625 L 1.46875 -4.75 C 1.46875 -5.1875 1.488281 -5.601562 1.53125 -6 L 0.5 -5.953125 L 0.5 -7.078125 C 1.113281 -7.078125 1.613281 -7.117188 2 -7.203125 C 2.382812 -7.296875 2.640625 -7.398438 2.765625 -7.515625 L 3.484375 -7.515625 C 3.503906 -7.367188 3.519531 -7.175781 3.53125 -6.9375 C 3.539062 -6.707031 3.546875 -6.476562 3.546875 -6.25 L 3.578125 -6.25 C 4.242188 -7.15625 4.953125 -7.609375 5.703125 -7.609375 C 6.078125 -7.609375 6.382812 -7.503906 6.625 -7.296875 C 6.863281 -7.085938 6.984375 -6.78125 6.984375 -6.375 C 6.984375 -6.125 6.898438 -5.890625 6.734375 -5.671875 C 6.566406 -5.453125 6.316406 -5.34375 5.984375 -5.34375 C 5.734375 -5.34375 5.515625 -5.40625 5.328125 -5.53125 C 5.140625 -5.664062 5.03125 -5.890625 5 -6.203125 C 4.71875 -6.203125 4.429688 -6.039062 4.140625 -5.71875 C 3.859375 -5.40625 3.664062 -5.09375 3.5625 -4.78125 L 3.5625 -2.375 C 3.5625 -1.90625 3.539062 -1.472656 3.5 -1.078125 C 3.820312 -1.109375 4.144531 -1.125 4.46875 -1.125 L 4.46875 0 L 0.609375 0 Z M 0.609375 -0.953125 "/></g></g></g><g fill="#000000" fill-opacity="1"><g transform="translate(104.550832, 181.645301)"><g><path d="M 4.078125 0.234375 C 3.410156 0.234375 2.800781 0.0859375 2.25 -0.203125 C 1.695312 -0.503906 1.257812 -0.9375 0.9375 -1.5 C 0.613281 -2.070312 0.453125 -2.742188 0.453125 -3.515625 C 0.453125 -4.253906 0.613281 -4.9375 0.9375 -5.5625 C 1.257812 -6.1875 1.710938 -6.679688 2.296875 -7.046875 C 2.890625 -7.421875 3.550781 -7.609375 4.28125 -7.609375 C 4.882812 -7.609375 5.398438 -7.515625 5.828125 -7.328125 C 6.253906 -7.140625 6.570312 -6.890625 6.78125 -6.578125 C 7 -6.265625 7.109375 -5.929688 7.109375 -5.578125 C 7.109375 -5.273438 7.019531 -5.015625 6.84375 -4.796875 C 6.664062 -4.585938 6.414062 -4.484375 6.09375 -4.484375 C 5.769531 -4.484375 5.523438 -4.578125 5.359375 -4.765625 C 5.203125 -4.960938 5.125 -5.1875 5.125 -5.4375 C 5.125 -5.664062 5.179688 -5.878906 5.296875 -6.078125 C 5.210938 -6.253906 5.070312 -6.378906 4.875 -6.453125 C 4.675781 -6.535156 4.476562 -6.578125 4.28125 -6.578125 C 3.78125 -6.578125 3.375 -6.347656 3.0625 -5.890625 C 2.757812 -5.429688 2.609375 -4.785156 2.609375 -3.953125 C 2.609375 -3.117188 2.769531 -2.429688 3.09375 -1.890625 C 3.414062 -1.347656 3.925781 -1.078125 4.625 -1.078125 C 5.019531 -1.078125 5.40625 -1.175781 5.78125 -1.375 C 6.164062 -1.582031 6.492188 -1.859375 6.765625 -2.203125 L 7.4375 -1.546875 C 6.945312 -0.867188 6.421875 -0.398438 5.859375 -0.140625 C 5.304688 0.109375 4.710938 0.234375 4.078125 0.234375 Z M 4.078125 0.234375 "/></g></g></g><g fill="#000000" fill-opacity="1"><g transform="translate(112.175125, 181.645301)"><g><path d="M 3.65625 0.234375 C 2.78125 0.234375 2.148438 -0.0195312 1.765625 -0.53125 C 1.390625 -1.039062 1.203125 -1.867188 1.203125 -3.015625 L 1.203125 -4.71875 C 1.203125 -5.125 1.21875 -5.550781 1.25 -6 L 0.21875 -5.953125 L 0.21875 -7.078125 C 0.84375 -7.078125 1.34375 -7.117188 1.71875 -7.203125 C 2.101562 -7.296875 2.359375 -7.398438 2.484375 -7.515625 L 3.296875 -7.515625 L 3.296875 -3 C 3.296875 -2.351562 3.378906 -1.878906 3.546875 -1.578125 C 3.710938 -1.273438 3.976562 -1.125 4.34375 -1.125 C 4.59375 -1.125 4.847656 -1.191406 5.109375 -1.328125 C 5.367188 -1.460938 5.585938 -1.628906 5.765625 -1.828125 L 5.765625 -4.71875 C 5.765625 -5.175781 5.78125 -5.601562 5.8125 -6 L 4.78125 -5.953125 L 4.78125 -7.078125 C 5.40625 -7.078125 5.90625 -7.117188 6.28125 -7.203125 C 6.65625 -7.296875 6.910156 -7.398438 7.046875 -7.515625 L 7.859375 -7.515625 L 7.859375 -2.375 C 7.859375 -1.90625 7.835938 -1.472656 7.796875 -1.078125 C 8.109375 -1.109375 8.425781 -1.125 8.75 -1.125 L 8.75 0 L 5.953125 0 L 5.859375 -0.765625 L 5.84375 -0.765625 C 5.476562 -0.453125 5.125 -0.207031 4.78125 -0.03125 C 4.445312 0.144531 4.070312 0.234375 3.65625 0.234375 Z M 3.65625 0.234375 "/></g></g></g><g fill="#000000" fill-opacity="1"><g transform="translate(121.27129, 181.645301)"><g><path d="M 2.6875 -8.828125 C 2.351562 -8.828125 2.078125 -8.941406 1.859375 -9.171875 C 1.640625 -9.398438 1.53125 -9.679688 1.53125 -10.015625 C 1.53125 -10.347656 1.640625 -10.632812 1.859375 -10.875 C 2.085938 -11.125 2.359375 -11.25 2.671875 -11.25 C 2.984375 -11.25 3.242188 -11.128906 3.453125 -10.890625 C 3.660156 -10.648438 3.765625 -10.359375 3.765625 -10.015625 C 3.765625 -9.671875 3.664062 -9.382812 3.46875 -9.15625 C 3.269531 -8.9375 3.007812 -8.828125 2.6875 -8.828125 Z M 0.609375 -0.953125 C 0.972656 -0.953125 1.207031 -1.054688 1.3125 -1.265625 C 1.414062 -1.472656 1.46875 -1.804688 1.46875 -2.265625 L 1.46875 -4.71875 C 1.46875 -5.175781 1.488281 -5.601562 1.53125 -6 L 0.5 -5.953125 L 0.5 -7.078125 C 1.113281 -7.078125 1.613281 -7.117188 2 -7.203125 C 2.382812 -7.296875 2.640625 -7.398438 2.765625 -7.515625 L 3.5625 -7.515625 L 3.5625 -2.375 C 3.5625 -1.90625 3.539062 -1.472656 3.5 -1.078125 C 3.820312 -1.109375 4.144531 -1.125 4.46875 -1.125 L 4.46875 0 L 0.609375 0 Z M 0.609375 -0.953125 "/></g></g></g><g fill="#000000" fill-opacity="1"><g transform="translate(126.084308, 181.645301)"><g><path d="M 3.515625 0.234375 C 1.984375 0.234375 1.21875 -0.707031 1.21875 -2.59375 L 1.25 -6.140625 L 0.25 -6.140625 L 0.25 -7.359375 C 0.5625 -7.359375 0.859375 -7.457031 1.140625 -7.65625 C 1.421875 -7.851562 1.660156 -8.09375 1.859375 -8.375 C 2.054688 -8.664062 2.191406 -8.941406 2.265625 -9.203125 L 3.359375 -9.203125 L 3.34375 -7.359375 L 5.21875 -7.359375 L 5.21875 -6.234375 L 3.34375 -6.1875 L 3.328125 -2.5625 C 3.328125 -1.613281 3.625 -1.140625 4.21875 -1.140625 C 4.6875 -1.140625 5.132812 -1.429688 5.5625 -2.015625 L 6.265625 -1.359375 C 5.796875 -0.679688 5.332031 -0.242188 4.875 -0.046875 C 4.414062 0.140625 3.960938 0.234375 3.515625 0.234375 Z M 3.515625 0.234375 "/></g></g></g><g fill="#000000" fill-opacity="1"><g transform="translate(81.99557, 201.8953)"><g><path d="M 4.515625 0.234375 C 4.117188 0.234375 3.691406 0.171875 3.234375 0.046875 C 2.773438 -0.078125 2.351562 -0.253906 1.96875 -0.484375 L 1.953125 -0.484375 L 2 0.125 L 0.875 0.125 L 0.875 -3.3125 L 1.84375 -3.3125 C 1.96875 -2.507812 2.273438 -1.894531 2.765625 -1.46875 C 3.253906 -1.039062 3.851562 -0.828125 4.5625 -0.828125 C 5.070312 -0.828125 5.492188 -0.960938 5.828125 -1.234375 C 6.160156 -1.503906 6.328125 -1.828125 6.328125 -2.203125 C 6.328125 -2.523438 6.21875 -2.796875 6 -3.015625 C 5.78125 -3.242188 5.535156 -3.421875 5.265625 -3.546875 C 4.992188 -3.679688 4.566406 -3.863281 3.984375 -4.09375 C 2.898438 -4.53125 2.070312 -5.019531 1.5 -5.5625 C 0.925781 -6.113281 0.640625 -6.835938 0.640625 -7.734375 C 0.640625 -8.179688 0.75 -8.617188 0.96875 -9.046875 C 1.195312 -9.472656 1.566406 -9.828125 2.078125 -10.109375 C 2.597656 -10.398438 3.265625 -10.546875 4.078125 -10.546875 C 4.503906 -10.546875 4.945312 -10.484375 5.40625 -10.359375 C 5.863281 -10.242188 6.25 -10.070312 6.5625 -9.84375 L 6.578125 -9.84375 L 6.515625 -10.453125 L 7.65625 -10.453125 L 7.65625 -7.015625 L 6.6875 -7.015625 C 6.5625 -7.816406 6.28125 -8.425781 5.84375 -8.84375 C 5.40625 -9.269531 4.847656 -9.484375 4.171875 -9.484375 C 3.722656 -9.484375 3.335938 -9.363281 3.015625 -9.125 C 2.703125 -8.882812 2.546875 -8.582031 2.546875 -8.21875 C 2.546875 -7.789062 2.726562 -7.425781 3.09375 -7.125 C 3.457031 -6.832031 4.070312 -6.507812 4.9375 -6.15625 C 5.925781 -5.757812 6.734375 -5.300781 7.359375 -4.78125 C 7.984375 -4.269531 8.296875 -3.585938 8.296875 -2.734375 C 8.296875 -2.160156 8.140625 -1.644531 7.828125 -1.1875 C 7.515625 -0.738281 7.070312 -0.390625 6.5 -0.140625 C 5.925781 0.109375 5.265625 0.234375 4.515625 0.234375 Z M 4.515625 0.234375 "/></g></g></g><g fill="#000000" fill-opacity="1"><g transform="translate(90.797357, 201.8953)"><g><path d="M 3.515625 0.234375 C 1.984375 0.234375 1.21875 -0.707031 1.21875 -2.59375 L 1.25 -6.140625 L 0.25 -6.140625 L 0.25 -7.359375 C 0.5625 -7.359375 0.859375 -7.457031 1.140625 -7.65625 C 1.421875 -7.851562 1.660156 -8.09375 1.859375 -8.375 C 2.054688 -8.664062 2.191406 -8.941406 2.265625 -9.203125 L 3.359375 -9.203125 L 3.34375 -7.359375 L 5.21875 -7.359375 L 5.21875 -6.234375 L 3.34375 -6.1875 L 3.328125 -2.5625 C 3.328125 -1.613281 3.625 -1.140625 4.21875 -1.140625 C 4.6875 -1.140625 5.132812 -1.429688 5.5625 -2.015625 L 6.265625 -1.359375 C 5.796875 -0.679688 5.332031 -0.242188 4.875 -0.046875 C 4.414062 0.140625 3.960938 0.234375 3.515625 0.234375 Z M 3.515625 0.234375 "/></g></g></g><g fill="#000000" fill-opacity="1"><g transform="translate(96.876184, 201.8953)"><g><path d="M 2.453125 0.234375 C 1.828125 0.234375 1.332031 0.0507812 0.96875 -0.3125 C 0.613281 -0.6875 0.4375 -1.15625 0.4375 -1.71875 C 0.4375 -2.582031 0.835938 -3.238281 1.640625 -3.6875 C 2.453125 -4.132812 3.421875 -4.382812 4.546875 -4.4375 L 4.546875 -5.203125 C 4.546875 -6.097656 4.210938 -6.546875 3.546875 -6.546875 C 3.117188 -6.546875 2.765625 -6.40625 2.484375 -6.125 C 2.609375 -5.988281 2.671875 -5.800781 2.671875 -5.5625 C 2.671875 -5.332031 2.585938 -5.125 2.421875 -4.9375 C 2.265625 -4.75 2.023438 -4.65625 1.703125 -4.65625 C 1.410156 -4.65625 1.179688 -4.75 1.015625 -4.9375 C 0.847656 -5.132812 0.765625 -5.375 0.765625 -5.65625 C 0.765625 -6.039062 0.898438 -6.378906 1.171875 -6.671875 C 1.453125 -6.960938 1.828125 -7.191406 2.296875 -7.359375 C 2.773438 -7.523438 3.300781 -7.609375 3.875 -7.609375 C 5.6875 -7.609375 6.59375 -6.664062 6.59375 -4.78125 L 6.59375 -2.375 C 6.59375 -1.90625 6.570312 -1.472656 6.53125 -1.078125 C 6.851562 -1.109375 7.171875 -1.125 7.484375 -1.125 L 7.484375 0 L 4.703125 0 C 4.679688 -0.125 4.660156 -0.347656 4.640625 -0.671875 L 4.625 -0.671875 C 4.03125 -0.0664062 3.304688 0.234375 2.453125 0.234375 Z M 3.375 -1.203125 C 3.8125 -1.203125 4.195312 -1.378906 4.53125 -1.734375 L 4.53125 -3.390625 C 3.957031 -3.328125 3.476562 -3.175781 3.09375 -2.9375 C 2.71875 -2.707031 2.53125 -2.390625 2.53125 -1.984375 C 2.53125 -1.722656 2.609375 -1.523438 2.765625 -1.390625 C 2.929688 -1.265625 3.132812 -1.203125 3.375 -1.203125 Z M 3.375 -1.203125 "/></g></g></g><g fill="#000000" fill-opacity="1"><g transform="translate(104.588792, 201.8953)"><g><path d="M 0.609375 -0.953125 C 0.972656 -0.953125 1.207031 -1.054688 1.3125 -1.265625 C 1.414062 -1.472656 1.46875 -1.804688 1.46875 -2.265625 L 1.46875 -4.75 C 1.46875 -5.1875 1.488281 -5.601562 1.53125 -6 L 0.5 -5.953125 L 0.5 -7.078125 C 1.113281 -7.078125 1.613281 -7.117188 2 -7.203125 C 2.382812 -7.296875 2.640625 -7.398438 2.765625 -7.515625 L 3.484375 -7.515625 C 3.503906 -7.367188 3.519531 -7.175781 3.53125 -6.9375 C 3.539062 -6.707031 3.546875 -6.476562 3.546875 -6.25 L 3.578125 -6.25 C 4.242188 -7.15625 4.953125 -7.609375 5.703125 -7.609375 C 6.078125 -7.609375 6.382812 -7.503906 6.625 -7.296875 C 6.863281 -7.085938 6.984375 -6.78125 6.984375 -6.375 C 6.984375 -6.125 6.898438 -5.890625 6.734375 -5.671875 C 6.566406 -5.453125 6.316406 -5.34375 5.984375 -5.34375 C 5.734375 -5.34375 5.515625 -5.40625 5.328125 -5.53125 C 5.140625 -5.664062 5.03125 -5.890625 5 -6.203125 C 4.71875 -6.203125 4.429688 -6.039062 4.140625 -5.71875 C 3.859375 -5.40625 3.664062 -5.09375 3.5625 -4.78125 L 3.5625 -2.375 C 3.5625 -1.90625 3.539062 -1.472656 3.5 -1.078125 C 3.820312 -1.109375 4.144531 -1.125 4.46875 -1.125 L 4.46875 0 L 0.609375 0 Z M 0.609375 -0.953125 "/></g></g></g><g fill="#000000" fill-opacity="1"><g transform="translate(111.653778, 201.8953)"><g><path d="M 3.515625 0.234375 C 1.984375 0.234375 1.21875 -0.707031 1.21875 -2.59375 L 1.25 -6.140625 L 0.25 -6.140625 L 0.25 -7.359375 C 0.5625 -7.359375 0.859375 -7.457031 1.140625 -7.65625 C 1.421875 -7.851562 1.660156 -8.09375 1.859375 -8.375 C 2.054688 -8.664062 2.191406 -8.941406 2.265625 -9.203125 L 3.359375 -9.203125 L 3.34375 -7.359375 L 5.21875 -7.359375 L 5.21875 -6.234375 L 3.34375 -6.1875 L 3.328125 -2.5625 C 3.328125 -1.613281 3.625 -1.140625 4.21875 -1.140625 C 4.6875 -1.140625 5.132812 -1.429688 5.5625 -2.015625 L 6.265625 -1.359375 C 5.796875 -0.679688 5.332031 -0.242188 4.875 -0.046875 C 4.414062 0.140625 3.960938 0.234375 3.515625 0.234375 Z M 3.515625 0.234375 "/></g></g></g><g fill="#000000" fill-opacity="1"><g transform="translate(117.732605, 201.8953)"><g><path d="M 4.09375 0.234375 C 3.375 0.234375 2.738281 0.078125 2.1875 -0.234375 C 1.644531 -0.554688 1.21875 -1.007812 0.90625 -1.59375 C 0.601562 -2.1875 0.453125 -2.878906 0.453125 -3.671875 C 0.453125 -4.359375 0.609375 -5.003906 0.921875 -5.609375 C 1.234375 -6.210938 1.664062 -6.695312 2.21875 -7.0625 C 2.78125 -7.425781 3.421875 -7.609375 4.140625 -7.609375 C 5.085938 -7.609375 5.878906 -7.328125 6.515625 -6.765625 C 7.148438 -6.203125 7.460938 -5.269531 7.453125 -3.96875 L 2.625 -3.875 C 2.625 -3.007812 2.785156 -2.328125 3.109375 -1.828125 C 3.441406 -1.328125 3.972656 -1.078125 4.703125 -1.078125 C 5.046875 -1.078125 5.410156 -1.164062 5.796875 -1.34375 C 6.191406 -1.519531 6.546875 -1.800781 6.859375 -2.1875 L 7.53125 -1.5625 C 6.695312 -0.363281 5.550781 0.234375 4.09375 0.234375 Z M 5.421875 -4.90625 C 5.390625 -6.019531 4.988281 -6.578125 4.21875 -6.578125 C 3.789062 -6.578125 3.453125 -6.425781 3.203125 -6.125 C 2.953125 -5.820312 2.789062 -5.414062 2.71875 -4.90625 Z M 5.421875 -4.90625 "/></g></g></g><g fill="#000000" fill-opacity="1"><g transform="translate(125.651275, 201.8953)"><g><path d="M 0.609375 -0.953125 C 0.972656 -0.953125 1.207031 -1.054688 1.3125 -1.265625 C 1.414062 -1.472656 1.46875 -1.804688 1.46875 -2.265625 L 1.46875 -4.75 C 1.46875 -5.1875 1.488281 -5.601562 1.53125 -6 L 0.5 -5.953125 L 0.5 -7.078125 C 1.113281 -7.078125 1.613281 -7.117188 2 -7.203125 C 2.382812 -7.296875 2.640625 -7.398438 2.765625 -7.515625 L 3.484375 -7.515625 C 3.503906 -7.367188 3.519531 -7.175781 3.53125 -6.9375 C 3.539062 -6.707031 3.546875 -6.476562 3.546875 -6.25 L 3.578125 -6.25 C 4.242188 -7.15625 4.953125 -7.609375 5.703125 -7.609375 C 6.078125 -7.609375 6.382812 -7.503906 6.625 -7.296875 C 6.863281 -7.085938 6.984375 -6.78125 6.984375 -6.375 C 6.984375 -6.125 6.898438 -5.890625 6.734375 -5.671875 C 6.566406 -5.453125 6.316406 -5.34375 5.984375 -5.34375 C 5.734375 -5.34375 5.515625 -5.40625 5.328125 -5.53125 C 5.140625 -5.664062 5.03125 -5.890625 5 -6.203125 C 4.71875 -6.203125 4.429688 -6.039062 4.140625 -5.71875 C 3.859375 -5.40625 3.664062 -5.09375 3.5625 -4.78125 L 3.5625 -2.375 C 3.5625 -1.90625 3.539062 -1.472656 3.5 -1.078125 C 3.820312 -1.109375 4.144531 -1.125 4.46875 -1.125 L 4.46875 0 L 0.609375 0 Z M 0.609375 -0.953125 "/></g></g></g><g fill="#000000" fill-opacity="1"><g transform="translate(223.21293, 181.645301)"><g><path d="M 5.5625 0.234375 C 4.570312 0.234375 3.691406 0.00390625 2.921875 -0.453125 C 2.160156 -0.921875 1.566406 -1.550781 1.140625 -2.34375 C 0.722656 -3.144531 0.515625 -4.035156 0.515625 -5.015625 C 0.515625 -5.941406 0.710938 -6.828125 1.109375 -7.671875 C 1.503906 -8.523438 2.085938 -9.21875 2.859375 -9.75 C 3.640625 -10.28125 4.578125 -10.546875 5.671875 -10.546875 C 6.066406 -10.546875 6.488281 -10.484375 6.9375 -10.359375 C 7.394531 -10.234375 7.816406 -10.054688 8.203125 -9.828125 L 8.21875 -9.828125 L 8.15625 -10.453125 L 9.296875 -10.453125 L 9.296875 -7.015625 L 8.34375 -7.015625 C 8.070312 -8.640625 7.242188 -9.460938 5.859375 -9.484375 C 5.203125 -9.484375 4.644531 -9.289062 4.1875 -8.90625 C 3.726562 -8.519531 3.382812 -8.003906 3.15625 -7.359375 C 2.9375 -6.722656 2.828125 -6.035156 2.828125 -5.296875 C 2.828125 -4.453125 2.945312 -3.703125 3.1875 -3.046875 C 3.4375 -2.390625 3.789062 -1.875 4.25 -1.5 C 4.71875 -1.132812 5.273438 -0.953125 5.921875 -0.953125 C 6.546875 -0.953125 7.160156 -1.113281 7.765625 -1.4375 C 8.367188 -1.769531 8.878906 -2.210938 9.296875 -2.765625 L 10 -2.125 C 9.351562 -1.226562 8.640625 -0.609375 7.859375 -0.265625 C 7.085938 0.0664062 6.320312 0.234375 5.5625 0.234375 Z M 5.5625 0.234375 "/></g></g></g><g fill="#000000" fill-opacity="1"><g transform="translate(233.339405, 181.645301)"><g><path d="M 2.6875 -8.828125 C 2.351562 -8.828125 2.078125 -8.941406 1.859375 -9.171875 C 1.640625 -9.398438 1.53125 -9.679688 1.53125 -10.015625 C 1.53125 -10.347656 1.640625 -10.632812 1.859375 -10.875 C 2.085938 -11.125 2.359375 -11.25 2.671875 -11.25 C 2.984375 -11.25 3.242188 -11.128906 3.453125 -10.890625 C 3.660156 -10.648438 3.765625 -10.359375 3.765625 -10.015625 C 3.765625 -9.671875 3.664062 -9.382812 3.46875 -9.15625 C 3.269531 -8.9375 3.007812 -8.828125 2.6875 -8.828125 Z M 0.609375 -0.953125 C 0.972656 -0.953125 1.207031 -1.054688 1.3125 -1.265625 C 1.414062 -1.472656 1.46875 -1.804688 1.46875 -2.265625 L 1.46875 -4.71875 C 1.46875 -5.175781 1.488281 -5.601562 1.53125 -6 L 0.5 -5.953125 L 0.5 -7.078125 C 1.113281 -7.078125 1.613281 -7.117188 2 -7.203125 C 2.382812 -7.296875 2.640625 -7.398438 2.765625 -7.515625 L 3.5625 -7.515625 L 3.5625 -2.375 C 3.5625 -1.90625 3.539062 -1.472656 3.5 -1.078125 C 3.820312 -1.109375 4.144531 -1.125 4.46875 -1.125 L 4.46875 0 L 0.609375 0 Z M 0.609375 -0.953125 "/></g></g></g><g fill="#000000" fill-opacity="1"><g transform="translate(238.152424, 181.645301)"><g><path d="M 0.609375 -0.953125 C 0.972656 -0.953125 1.207031 -1.054688 1.3125 -1.265625 C 1.414062 -1.472656 1.46875 -1.804688 1.46875 -2.265625 L 1.46875 -4.75 C 1.46875 -5.1875 1.488281 -5.601562 1.53125 -6 L 0.5 -5.953125 L 0.5 -7.078125 C 1.113281 -7.078125 1.613281 -7.117188 2 -7.203125 C 2.382812 -7.296875 2.640625 -7.398438 2.765625 -7.515625 L 3.484375 -7.515625 C 3.503906 -7.367188 3.519531 -7.175781 3.53125 -6.9375 C 3.539062 -6.707031 3.546875 -6.476562 3.546875 -6.25 L 3.578125 -6.25 C 4.242188 -7.15625 4.953125 -7.609375 5.703125 -7.609375 C 6.078125 -7.609375 6.382812 -7.503906 6.625 -7.296875 C 6.863281 -7.085938 6.984375 -6.78125 6.984375 -6.375 C 6.984375 -6.125 6.898438 -5.890625 6.734375 -5.671875 C 6.566406 -5.453125 6.316406 -5.34375 5.984375 -5.34375 C 5.734375 -5.34375 5.515625 -5.40625 5.328125 -5.53125 C 5.140625 -5.664062 5.03125 -5.890625 5 -6.203125 C 4.71875 -6.203125 4.429688 -6.039062 4.140625 -5.71875 C 3.859375 -5.40625 3.664062 -5.09375 3.5625 -4.78125 L 3.5625 -2.375 C 3.5625 -1.90625 3.539062 -1.472656 3.5 -1.078125 C 3.820312 -1.109375 4.144531 -1.125 4.46875 -1.125 L 4.46875 0 L 0.609375 0 Z M 0.609375 -0.953125 "/></g></g></g><g fill="#000000" fill-opacity="1"><g transform="translate(245.217411, 181.645301)"><g><path d="M 4.078125 0.234375 C 3.410156 0.234375 2.800781 0.0859375 2.25 -0.203125 C 1.695312 -0.503906 1.257812 -0.9375 0.9375 -1.5 C 0.613281 -2.070312 0.453125 -2.742188 0.453125 -3.515625 C 0.453125 -4.253906 0.613281 -4.9375 0.9375 -5.5625 C 1.257812 -6.1875 1.710938 -6.679688 2.296875 -7.046875 C 2.890625 -7.421875 3.550781 -7.609375 4.28125 -7.609375 C 4.882812 -7.609375 5.398438 -7.515625 5.828125 -7.328125 C 6.253906 -7.140625 6.570312 -6.890625 6.78125 -6.578125 C 7 -6.265625 7.109375 -5.929688 7.109375 -5.578125 C 7.109375 -5.273438 7.019531 -5.015625 6.84375 -4.796875 C 6.664062 -4.585938 6.414062 -4.484375 6.09375 -4.484375 C 5.769531 -4.484375 5.523438 -4.578125 5.359375 -4.765625 C 5.203125 -4.960938 5.125 -5.1875 5.125 -5.4375 C 5.125 -5.664062 5.179688 -5.878906 5.296875 -6.078125 C 5.210938 -6.253906 5.070312 -6.378906 4.875 -6.453125 C 4.675781 -6.535156 4.476562 -6.578125 4.28125 -6.578125 C 3.78125 -6.578125 3.375 -6.347656 3.0625 -5.890625 C 2.757812 -5.429688 2.609375 -4.785156 2.609375 -3.953125 C 2.609375 -3.117188 2.769531 -2.429688 3.09375 -1.890625 C 3.414062 -1.347656 3.925781 -1.078125 4.625 -1.078125 C 5.019531 -1.078125 5.40625 -1.175781 5.78125 -1.375 C 6.164062 -1.582031 6.492188 -1.859375 6.765625 -2.203125 L 7.4375 -1.546875 C 6.945312 -0.867188 6.421875 -0.398438 5.859375 -0.140625 C 5.304688 0.109375 4.710938 0.234375 4.078125 0.234375 Z M 4.078125 0.234375 "/></g></g></g><g fill="#000000" fill-opacity="1"><g transform="translate(252.841704, 181.645301)"><g><path d="M 3.65625 0.234375 C 2.78125 0.234375 2.148438 -0.0195312 1.765625 -0.53125 C 1.390625 -1.039062 1.203125 -1.867188 1.203125 -3.015625 L 1.203125 -4.71875 C 1.203125 -5.125 1.21875 -5.550781 1.25 -6 L 0.21875 -5.953125 L 0.21875 -7.078125 C 0.84375 -7.078125 1.34375 -7.117188 1.71875 -7.203125 C 2.101562 -7.296875 2.359375 -7.398438 2.484375 -7.515625 L 3.296875 -7.515625 L 3.296875 -3 C 3.296875 -2.351562 3.378906 -1.878906 3.546875 -1.578125 C 3.710938 -1.273438 3.976562 -1.125 4.34375 -1.125 C 4.59375 -1.125 4.847656 -1.191406 5.109375 -1.328125 C 5.367188 -1.460938 5.585938 -1.628906 5.765625 -1.828125 L 5.765625 -4.71875 C 5.765625 -5.175781 5.78125 -5.601562 5.8125 -6 L 4.78125 -5.953125 L 4.78125 -7.078125 C 5.40625 -7.078125 5.90625 -7.117188 6.28125 -7.203125 C 6.65625 -7.296875 6.910156 -7.398438 7.046875 -7.515625 L 7.859375 -7.515625 L 7.859375 -2.375 C 7.859375 -1.90625 7.835938 -1.472656 7.796875 -1.078125 C 8.109375 -1.109375 8.425781 -1.125 8.75 -1.125 L 8.75 0 L 5.953125 0 L 5.859375 -0.765625 L 5.84375 -0.765625 C 5.476562 -0.453125 5.125 -0.207031 4.78125 -0.03125 C 4.445312 0.144531 4.070312 0.234375 3.65625 0.234375 Z M 3.65625 0.234375 "/></g></g></g><g fill="#000000" fill-opacity="1"><g transform="translate(261.937868, 181.645301)"><g><path d="M 2.6875 -8.828125 C 2.351562 -8.828125 2.078125 -8.941406 1.859375 -9.171875 C 1.640625 -9.398438 1.53125 -9.679688 1.53125 -10.015625 C 1.53125 -10.347656 1.640625 -10.632812 1.859375 -10.875 C 2.085938 -11.125 2.359375 -11.25 2.671875 -11.25 C 2.984375 -11.25 3.242188 -11.128906 3.453125 -10.890625 C 3.660156 -10.648438 3.765625 -10.359375 3.765625 -10.015625 C 3.765625 -9.671875 3.664062 -9.382812 3.46875 -9.15625 C 3.269531 -8.9375 3.007812 -8.828125 2.6875 -8.828125 Z M 0.609375 -0.953125 C 0.972656 -0.953125 1.207031 -1.054688 1.3125 -1.265625 C 1.414062 -1.472656 1.46875 -1.804688 1.46875 -2.265625 L 1.46875 -4.71875 C 1.46875 -5.175781 1.488281 -5.601562 1.53125 -6 L 0.5 -5.953125 L 0.5 -7.078125 C 1.113281 -7.078125 1.613281 -7.117188 2 -7.203125 C 2.382812 -7.296875 2.640625 -7.398438 2.765625 -7.515625 L 3.5625 -7.515625 L 3.5625 -2.375 C 3.5625 -1.90625 3.539062 -1.472656 3.5 -1.078125 C 3.820312 -1.109375 4.144531 -1.125 4.46875 -1.125 L 4.46875 0 L 0.609375 0 Z M 0.609375 -0.953125 "/></g></g></g><g fill="#000000" fill-opacity="1"><g transform="translate(266.750887, 181.645301)"><g><path d="M 3.515625 0.234375 C 1.984375 0.234375 1.21875 -0.707031 1.21875 -2.59375 L 1.25 -6.140625 L 0.25 -6.140625 L 0.25 -7.359375 C 0.5625 -7.359375 0.859375 -7.457031 1.140625 -7.65625 C 1.421875 -7.851562 1.660156 -8.09375 1.859375 -8.375 C 2.054688 -8.664062 2.191406 -8.941406 2.265625 -9.203125 L 3.359375 -9.203125 L 3.34375 -7.359375 L 5.21875 -7.359375 L 5.21875 -6.234375 L 3.34375 -6.1875 L 3.328125 -2.5625 C 3.328125 -1.613281 3.625 -1.140625 4.21875 -1.140625 C 4.6875 -1.140625 5.132812 -1.429688 5.5625 -2.015625 L 6.265625 -1.359375 C 5.796875 -0.679688 5.332031 -0.242188 4.875 -0.046875 C 4.414062 0.140625 3.960938 0.234375 3.515625 0.234375 Z M 3.515625 0.234375 "/></g></g></g><g fill="#000000" fill-opacity="1"><g transform="translate(222.029336, 201.8953)"><g><path d="M 0.734375 -0.96875 C 1.003906 -0.976562 1.207031 -1.007812 1.34375 -1.0625 C 1.476562 -1.125 1.582031 -1.242188 1.65625 -1.421875 C 1.738281 -1.597656 1.78125 -1.875 1.78125 -2.25 L 1.78125 -7.890625 C 1.78125 -8.441406 1.800781 -8.882812 1.84375 -9.21875 L 0.734375 -9.171875 L 0.734375 -10.3125 L 4.8125 -10.34375 C 6 -10.351562 6.925781 -10.140625 7.59375 -9.703125 C 8.257812 -9.273438 8.59375 -8.644531 8.59375 -7.8125 C 8.59375 -7.332031 8.410156 -6.882812 8.046875 -6.46875 C 7.691406 -6.0625 7.164062 -5.765625 6.46875 -5.578125 L 6.46875 -5.5625 C 7.414062 -5.414062 8.128906 -5.101562 8.609375 -4.625 C 9.085938 -4.144531 9.328125 -3.582031 9.328125 -2.9375 C 9.328125 -2 8.992188 -1.273438 8.328125 -0.765625 C 7.671875 -0.253906 6.8125 0 5.75 0 L 0.734375 0 Z M 4.6875 -5.8125 C 5.269531 -5.8125 5.6875 -5.988281 5.9375 -6.34375 C 6.195312 -6.707031 6.328125 -7.1875 6.328125 -7.78125 C 6.328125 -8.3125 6.179688 -8.695312 5.890625 -8.9375 C 5.597656 -9.1875 5.238281 -9.3125 4.8125 -9.3125 C 4.613281 -9.3125 4.453125 -9.285156 4.328125 -9.234375 C 4.203125 -9.191406 4.101562 -9.078125 4.03125 -8.890625 C 3.957031 -8.710938 3.921875 -8.441406 3.921875 -8.078125 L 3.921875 -5.796875 Z M 3.859375 -1.046875 C 4.503906 -1.046875 4.984375 -1.050781 5.296875 -1.0625 C 5.867188 -1.09375 6.296875 -1.273438 6.578125 -1.609375 C 6.867188 -1.953125 7.015625 -2.40625 7.015625 -2.96875 C 7.015625 -3.601562 6.832031 -4.0625 6.46875 -4.34375 C 6.101562 -4.625 5.648438 -4.765625 5.109375 -4.765625 C 4.566406 -4.765625 4.171875 -4.757812 3.921875 -4.75 L 3.921875 -2.34375 C 3.921875 -1.8125 3.898438 -1.378906 3.859375 -1.046875 Z M 3.859375 -1.046875 "/></g></g></g><g fill="#000000" fill-opacity="1"><g transform="translate(231.758404, 201.8953)"><g><path d="M 3.65625 0.234375 C 2.78125 0.234375 2.148438 -0.0195312 1.765625 -0.53125 C 1.390625 -1.039062 1.203125 -1.867188 1.203125 -3.015625 L 1.203125 -4.71875 C 1.203125 -5.125 1.21875 -5.550781 1.25 -6 L 0.21875 -5.953125 L 0.21875 -7.078125 C 0.84375 -7.078125 1.34375 -7.117188 1.71875 -7.203125 C 2.101562 -7.296875 2.359375 -7.398438 2.484375 -7.515625 L 3.296875 -7.515625 L 3.296875 -3 C 3.296875 -2.351562 3.378906 -1.878906 3.546875 -1.578125 C 3.710938 -1.273438 3.976562 -1.125 4.34375 -1.125 C 4.59375 -1.125 4.847656 -1.191406 5.109375 -1.328125 C 5.367188 -1.460938 5.585938 -1.628906 5.765625 -1.828125 L 5.765625 -4.71875 C 5.765625 -5.175781 5.78125 -5.601562 5.8125 -6 L 4.78125 -5.953125 L 4.78125 -7.078125 C 5.40625 -7.078125 5.90625 -7.117188 6.28125 -7.203125 C 6.65625 -7.296875 6.910156 -7.398438 7.046875 -7.515625 L 7.859375 -7.515625 L 7.859375 -2.375 C 7.859375 -1.90625 7.835938 -1.472656 7.796875 -1.078125 C 8.109375 -1.109375 8.425781 -1.125 8.75 -1.125 L 8.75 0 L 5.953125 0 L 5.859375 -0.765625 L 5.84375 -0.765625 C 5.476562 -0.453125 5.125 -0.207031 4.78125 -0.03125 C 4.445312 0.144531 4.070312 0.234375 3.65625 0.234375 Z M 3.65625 0.234375 "/></g></g></g><g fill="#000000" fill-opacity="1"><g transform="translate(240.854568, 201.8953)"><g><path d="M 2.6875 -8.828125 C 2.351562 -8.828125 2.078125 -8.941406 1.859375 -9.171875 C 1.640625 -9.398438 1.53125 -9.679688 1.53125 -10.015625 C 1.53125 -10.347656 1.640625 -10.632812 1.859375 -10.875 C 2.085938 -11.125 2.359375 -11.25 2.671875 -11.25 C 2.984375 -11.25 3.242188 -11.128906 3.453125 -10.890625 C 3.660156 -10.648438 3.765625 -10.359375 3.765625 -10.015625 C 3.765625 -9.671875 3.664062 -9.382812 3.46875 -9.15625 C 3.269531 -8.9375 3.007812 -8.828125 2.6875 -8.828125 Z M 0.609375 -0.953125 C 0.972656 -0.953125 1.207031 -1.054688 1.3125 -1.265625 C 1.414062 -1.472656 1.46875 -1.804688 1.46875 -2.265625 L 1.46875 -4.71875 C 1.46875 -5.175781 1.488281 -5.601562 1.53125 -6 L 0.5 -5.953125 L 0.5 -7.078125 C 1.113281 -7.078125 1.613281 -7.117188 2 -7.203125 C 2.382812 -7.296875 2.640625 -7.398438 2.765625 -7.515625 L 3.5625 -7.515625 L 3.5625 -2.375 C 3.5625 -1.90625 3.539062 -1.472656 3.5 -1.078125 C 3.820312 -1.109375 4.144531 -1.125 4.46875 -1.125 L 4.46875 0 L 0.609375 0 Z M 0.609375 -0.953125 "/></g></g></g><g fill="#000000" fill-opacity="1"><g transform="translate(245.667587, 201.8953)"><g><path d="M 0.375 -0.953125 C 0.632812 -0.953125 0.828125 -1.003906 0.953125 -1.109375 C 1.078125 -1.210938 1.15625 -1.351562 1.1875 -1.53125 C 1.21875 -1.707031 1.234375 -1.953125 1.234375 -2.265625 L 1.234375 -8.328125 C 1.234375 -8.796875 1.253906 -9.222656 1.296875 -9.609375 L 0.265625 -9.5625 L 0.265625 -10.6875 C 0.878906 -10.6875 1.378906 -10.726562 1.765625 -10.8125 C 2.148438 -10.90625 2.40625 -11.007812 2.53125 -11.125 L 3.328125 -11.125 L 3.328125 -2.375 C 3.328125 -1.90625 3.304688 -1.472656 3.265625 -1.078125 C 3.585938 -1.109375 3.910156 -1.125 4.234375 -1.125 L 4.234375 0 L 0.375 0 Z M 0.375 -0.953125 "/></g></g></g><g fill="#000000" fill-opacity="1"><g transform="translate(250.259826, 201.8953)"><g><path d="M 3.453125 0.234375 C 2.859375 0.234375 2.335938 0.0820312 1.890625 -0.21875 C 1.441406 -0.519531 1.09375 -0.953125 0.84375 -1.515625 C 0.59375 -2.085938 0.46875 -2.742188 0.46875 -3.484375 C 0.46875 -4.273438 0.617188 -4.984375 0.921875 -5.609375 C 1.234375 -6.234375 1.664062 -6.722656 2.21875 -7.078125 C 2.769531 -7.429688 3.40625 -7.609375 4.125 -7.609375 C 4.507812 -7.609375 4.945312 -7.519531 5.4375 -7.34375 L 5.4375 -8.3125 C 5.4375 -8.78125 5.457031 -9.210938 5.5 -9.609375 C 5.175781 -9.578125 4.828125 -9.5625 4.453125 -9.5625 L 4.453125 -10.6875 C 5.066406 -10.6875 5.566406 -10.726562 5.953125 -10.8125 C 6.335938 -10.90625 6.59375 -11.007812 6.71875 -11.125 L 7.515625 -11.125 L 7.515625 -2.375 C 7.515625 -1.90625 7.492188 -1.472656 7.453125 -1.078125 C 7.773438 -1.109375 8.09375 -1.125 8.40625 -1.125 L 8.40625 0 L 5.609375 0 L 5.546875 -0.671875 L 5.53125 -0.671875 C 4.945312 -0.0664062 4.253906 0.234375 3.453125 0.234375 Z M 4.21875 -1.109375 C 4.457031 -1.109375 4.6875 -1.171875 4.90625 -1.296875 C 5.125 -1.421875 5.300781 -1.59375 5.4375 -1.8125 L 5.4375 -6.234375 C 5.332031 -6.304688 5.179688 -6.367188 4.984375 -6.421875 C 4.785156 -6.484375 4.585938 -6.515625 4.390625 -6.515625 C 3.765625 -6.503906 3.316406 -6.234375 3.046875 -5.703125 C 2.773438 -5.171875 2.640625 -4.507812 2.640625 -3.71875 C 2.640625 -3.007812 2.769531 -2.394531 3.03125 -1.875 C 3.289062 -1.363281 3.6875 -1.109375 4.21875 -1.109375 Z M 4.21875 -1.109375 "/></g></g></g><g fill="#000000" fill-opacity="1"><g transform="translate(259.032179, 201.8953)"><g><path d="M 4.09375 0.234375 C 3.375 0.234375 2.738281 0.078125 2.1875 -0.234375 C 1.644531 -0.554688 1.21875 -1.007812 0.90625 -1.59375 C 0.601562 -2.1875 0.453125 -2.878906 0.453125 -3.671875 C 0.453125 -4.359375 0.609375 -5.003906 0.921875 -5.609375 C 1.234375 -6.210938 1.664062 -6.695312 2.21875 -7.0625 C 2.78125 -7.425781 3.421875 -7.609375 4.140625 -7.609375 C 5.085938 -7.609375 5.878906 -7.328125 6.515625 -6.765625 C 7.148438 -6.203125 7.460938 -5.269531 7.453125 -3.96875 L 2.625 -3.875 C 2.625 -3.007812 2.785156 -2.328125 3.109375 -1.828125 C 3.441406 -1.328125 3.972656 -1.078125 4.703125 -1.078125 C 5.046875 -1.078125 5.410156 -1.164062 5.796875 -1.34375 C 6.191406 -1.519531 6.546875 -1.800781 6.859375 -2.1875 L 7.53125 -1.5625 C 6.695312 -0.363281 5.550781 0.234375 4.09375 0.234375 Z M 5.421875 -4.90625 C 5.390625 -6.019531 4.988281 -6.578125 4.21875 -6.578125 C 3.789062 -6.578125 3.453125 -6.425781 3.203125 -6.125 C 2.953125 -5.820312 2.789062 -5.414062 2.71875 -4.90625 Z M 5.421875 -4.90625 "/></g></g></g><g fill="#000000" fill-opacity="1"><g transform="translate(266.95085, 201.8953)"><g><path d="M 0.609375 -0.953125 C 0.972656 -0.953125 1.207031 -1.054688 1.3125 -1.265625 C 1.414062 -1.472656 1.46875 -1.804688 1.46875 -2.265625 L 1.46875 -4.75 C 1.46875 -5.1875 1.488281 -5.601562 1.53125 -6 L 0.5 -5.953125 L 0.5 -7.078125 C 1.113281 -7.078125 1.613281 -7.117188 2 -7.203125 C 2.382812 -7.296875 2.640625 -7.398438 2.765625 -7.515625 L 3.484375 -7.515625 C 3.503906 -7.367188 3.519531 -7.175781 3.53125 -6.9375 C 3.539062 -6.707031 3.546875 -6.476562 3.546875 -6.25 L 3.578125 -6.25 C 4.242188 -7.15625 4.953125 -7.609375 5.703125 -7.609375 C 6.078125 -7.609375 6.382812 -7.503906 6.625 -7.296875 C 6.863281 -7.085938 6.984375 -6.78125 6.984375 -6.375 C 6.984375 -6.125 6.898438 -5.890625 6.734375 -5.671875 C 6.566406 -5.453125 6.316406 -5.34375 5.984375 -5.34375 C 5.734375 -5.34375 5.515625 -5.40625 5.328125 -5.53125 C 5.140625 -5.664062 5.03125 -5.890625 5 -6.203125 C 4.71875 -6.203125 4.429688 -6.039062 4.140625 -5.71875 C 3.859375 -5.40625 3.664062 -5.09375 3.5625 -4.78125 L 3.5625 -2.375 C 3.5625 -1.90625 3.539062 -1.472656 3.5 -1.078125 C 3.820312 -1.109375 4.144531 -1.125 4.46875 -1.125 L 4.46875 0 L 0.609375 0 Z M 0.609375 -0.953125 "/></g></g></g><g fill="#000000" fill-opacity="1"><g transform="translate(187.807614, 72.453305)"><g><path d="M 1.4375 -1.890625 C 1.957031 -1.910156 2.347656 -1.972656 2.609375 -2.078125 C 2.878906 -2.179688 3.09375 -2.40625 3.25 -2.75 C 3.40625 -3.101562 3.484375 -3.648438 3.484375 -4.390625 L 3.484375 -15.40625 C 3.484375 -16.476562 3.519531 -17.335938 3.59375 -17.984375 L 1.4375 -17.90625 L 1.4375 -20.109375 L 15.796875 -20.109375 L 15.96875 -14.546875 L 14.078125 -14.546875 C 14.078125 -15.960938 13.738281 -16.941406 13.0625 -17.484375 C 12.382812 -18.023438 11.566406 -18.28125 10.609375 -18.25 L 9.5625 -18.21875 C 9.101562 -18.195312 8.738281 -18.132812 8.46875 -18.03125 C 8.207031 -17.925781 8.003906 -17.691406 7.859375 -17.328125 C 7.710938 -16.960938 7.640625 -16.425781 7.640625 -15.71875 L 7.640625 -11.40625 L 11 -11.40625 C 10.976562 -11.726562 10.941406 -12.5625 10.890625 -13.90625 L 13.109375 -13.90625 L 13.109375 -6.921875 L 11.203125 -6.921875 C 11.203125 -7.691406 11.082031 -8.257812 10.84375 -8.625 C 10.601562 -8.988281 10.289062 -9.222656 9.90625 -9.328125 C 9.53125 -9.429688 9.023438 -9.472656 8.390625 -9.453125 L 7.640625 -9.421875 L 7.640625 -4.71875 C 7.640625 -3.675781 7.601562 -2.832031 7.53125 -2.1875 L 11.375 -2.1875 C 12.351562 -2.1875 13.179688 -2.515625 13.859375 -3.171875 C 14.546875 -3.835938 14.890625 -4.890625 14.890625 -6.328125 L 16.75 -6.328125 L 16.609375 0 L 1.4375 0 Z M 1.4375 -1.890625 "/></g></g></g><g fill="#000000" fill-opacity="1"><g transform="translate(205.730583, 72.453305)"><g><path d="M 0.71875 -1.875 C 1.238281 -1.875 1.617188 -1.972656 1.859375 -2.171875 C 2.097656 -2.367188 2.25 -2.640625 2.3125 -2.984375 C 2.375 -3.328125 2.40625 -3.804688 2.40625 -4.421875 L 2.40625 -16.234375 C 2.40625 -17.148438 2.445312 -17.984375 2.53125 -18.734375 L 0.515625 -18.65625 L 0.515625 -20.828125 C 1.722656 -20.828125 2.695312 -20.910156 3.4375 -21.078125 C 4.1875 -21.253906 4.6875 -21.457031 4.9375 -21.6875 L 6.5 -21.6875 L 6.5 -4.625 C 6.5 -3.707031 6.457031 -2.863281 6.375 -2.09375 C 7.007812 -2.15625 7.632812 -2.1875 8.25 -2.1875 L 8.25 0 L 0.71875 0 Z M 0.71875 -1.875 "/></g></g></g><g fill="#000000" fill-opacity="1"><g transform="translate(214.692062, 72.453305)"><g><path d="M 7.984375 0.453125 C 6.585938 0.453125 5.351562 0.144531 4.28125 -0.46875 C 3.207031 -1.09375 2.375 -1.976562 1.78125 -3.125 C 1.1875 -4.28125 0.890625 -5.625 0.890625 -7.15625 C 0.890625 -8.5 1.191406 -9.757812 1.796875 -10.9375 C 2.398438 -12.113281 3.25 -13.054688 4.34375 -13.765625 C 5.4375 -14.472656 6.679688 -14.828125 8.078125 -14.828125 C 9.929688 -14.828125 11.472656 -14.28125 12.703125 -13.1875 C 13.941406 -12.09375 14.554688 -10.273438 14.546875 -7.734375 L 5.109375 -7.5625 C 5.109375 -5.875 5.429688 -4.539062 6.078125 -3.5625 C 6.722656 -2.582031 7.753906 -2.09375 9.171875 -2.09375 C 9.835938 -2.09375 10.550781 -2.265625 11.3125 -2.609375 C 12.082031 -2.953125 12.773438 -3.5 13.390625 -4.25 L 14.6875 -3.046875 C 13.050781 -0.710938 10.816406 0.453125 7.984375 0.453125 Z M 10.578125 -9.5625 C 10.515625 -11.726562 9.726562 -12.8125 8.21875 -12.8125 C 7.394531 -12.8125 6.738281 -12.519531 6.25 -11.9375 C 5.757812 -11.351562 5.4375 -10.5625 5.28125 -9.5625 Z M 10.578125 -9.5625 "/></g></g></g><g fill="#000000" fill-opacity="1"><g transform="translate(230.144881, 72.453305)"><g><path d="M 7.953125 0.453125 C 6.648438 0.453125 5.460938 0.160156 4.390625 -0.421875 C 3.316406 -1.003906 2.460938 -1.84375 1.828125 -2.9375 C 1.203125 -4.039062 0.890625 -5.351562 0.890625 -6.875 C 0.890625 -8.300781 1.203125 -9.625 1.828125 -10.84375 C 2.460938 -12.0625 3.347656 -13.03125 4.484375 -13.75 C 5.628906 -14.46875 6.921875 -14.828125 8.359375 -14.828125 C 9.523438 -14.828125 10.523438 -14.644531 11.359375 -14.28125 C 12.191406 -13.914062 12.816406 -13.429688 13.234375 -12.828125 C 13.660156 -12.222656 13.875 -11.578125 13.875 -10.890625 C 13.875 -10.296875 13.695312 -9.785156 13.34375 -9.359375 C 12.988281 -8.941406 12.503906 -8.734375 11.890625 -8.734375 C 11.265625 -8.734375 10.789062 -8.925781 10.46875 -9.3125 C 10.15625 -9.695312 10 -10.128906 10 -10.609375 C 10 -11.046875 10.113281 -11.46875 10.34375 -11.875 C 10.164062 -12.21875 9.882812 -12.457031 9.5 -12.59375 C 9.125 -12.738281 8.742188 -12.8125 8.359375 -12.8125 C 7.378906 -12.8125 6.585938 -12.363281 5.984375 -11.46875 C 5.390625 -10.582031 5.09375 -9.328125 5.09375 -7.703125 C 5.09375 -6.078125 5.40625 -4.734375 6.03125 -3.671875 C 6.664062 -2.617188 7.660156 -2.09375 9.015625 -2.09375 C 9.785156 -2.09375 10.539062 -2.289062 11.28125 -2.6875 C 12.03125 -3.09375 12.664062 -3.632812 13.1875 -4.3125 L 14.515625 -3.015625 C 13.554688 -1.691406 12.53125 -0.78125 11.4375 -0.28125 C 10.34375 0.207031 9.179688 0.453125 7.953125 0.453125 Z M 7.953125 0.453125 "/></g></g></g><g fill="#000000" fill-opacity="1"><g transform="translate(245.02324, 72.453305)"><g><path d="M 6.875 0.453125 C 3.882812 0.453125 2.390625 -1.382812 2.390625 -5.0625 L 2.4375 -11.984375 L 0.484375 -11.984375 L 0.484375 -14.375 C 1.097656 -14.375 1.675781 -14.5625 2.21875 -14.9375 C 2.769531 -15.320312 3.234375 -15.789062 3.609375 -16.34375 C 3.992188 -16.90625 4.265625 -17.441406 4.421875 -17.953125 L 6.546875 -17.953125 L 6.515625 -14.375 L 10.171875 -14.375 L 10.171875 -12.15625 L 6.515625 -12.0625 L 6.5 -5 C 6.5 -3.144531 7.070312 -2.21875 8.21875 -2.21875 C 9.132812 -2.21875 10.003906 -2.789062 10.828125 -3.9375 L 12.21875 -2.640625 C 11.3125 -1.316406 10.40625 -0.46875 9.5 -0.09375 C 8.601562 0.269531 7.726562 0.453125 6.875 0.453125 Z M 6.875 0.453125 "/></g></g></g><g fill="#000000" fill-opacity="1"><g transform="translate(256.885716, 72.453305)"><g><path d="M 1.171875 -1.875 C 1.898438 -1.875 2.363281 -2.070312 2.5625 -2.46875 C 2.769531 -2.875 2.875 -3.523438 2.875 -4.421875 L 2.875 -9.25 C 2.875 -10.113281 2.910156 -10.925781 2.984375 -11.6875 L 0.984375 -11.609375 L 0.984375 -13.796875 C 2.179688 -13.796875 3.15625 -13.878906 3.90625 -14.046875 C 4.65625 -14.222656 5.15625 -14.425781 5.40625 -14.65625 L 6.8125 -14.65625 C 6.851562 -14.363281 6.878906 -13.988281 6.890625 -13.53125 C 6.910156 -13.070312 6.921875 -12.625 6.921875 -12.1875 L 6.984375 -12.1875 C 8.285156 -13.945312 9.664062 -14.828125 11.125 -14.828125 C 11.851562 -14.828125 12.453125 -14.625 12.921875 -14.21875 C 13.390625 -13.820312 13.625 -13.226562 13.625 -12.4375 C 13.625 -11.9375 13.457031 -11.476562 13.125 -11.0625 C 12.800781 -10.644531 12.316406 -10.4375 11.671875 -10.4375 C 11.191406 -10.4375 10.765625 -10.554688 10.390625 -10.796875 C 10.015625 -11.046875 9.796875 -11.476562 9.734375 -12.09375 C 9.203125 -12.09375 8.648438 -11.78125 8.078125 -11.15625 C 7.515625 -10.539062 7.140625 -9.925781 6.953125 -9.3125 L 6.953125 -4.625 C 6.953125 -3.707031 6.914062 -2.863281 6.84375 -2.09375 C 7.457031 -2.15625 8.078125 -2.1875 8.703125 -2.1875 L 8.703125 0 L 1.171875 0 Z M 1.171875 -1.875 "/></g></g></g><g fill="#000000" fill-opacity="1"><g transform="translate(270.672618, 72.453305)"><g><path d="M 5.234375 -17.21875 C 4.578125 -17.21875 4.035156 -17.441406 3.609375 -17.890625 C 3.191406 -18.335938 2.984375 -18.890625 2.984375 -19.546875 C 2.984375 -20.191406 3.203125 -20.75 3.640625 -21.21875 C 4.085938 -21.6875 4.609375 -21.921875 5.203125 -21.921875 C 5.816406 -21.921875 6.328125 -21.691406 6.734375 -21.234375 C 7.148438 -20.773438 7.359375 -20.210938 7.359375 -19.546875 C 7.359375 -18.867188 7.160156 -18.3125 6.765625 -17.875 C 6.367188 -17.4375 5.859375 -17.21875 5.234375 -17.21875 Z M 1.171875 -1.875 C 1.898438 -1.875 2.363281 -2.070312 2.5625 -2.46875 C 2.769531 -2.875 2.875 -3.523438 2.875 -4.421875 L 2.875 -9.1875 C 2.875 -10.09375 2.910156 -10.925781 2.984375 -11.6875 L 0.984375 -11.609375 L 0.984375 -13.796875 C 2.179688 -13.796875 3.15625 -13.878906 3.90625 -14.046875 C 4.65625 -14.222656 5.15625 -14.425781 5.40625 -14.65625 L 6.953125 -14.65625 L 6.953125 -4.625 C 6.953125 -3.707031 6.914062 -2.863281 6.84375 -2.09375 C 7.457031 -2.15625 8.078125 -2.1875 8.703125 -2.1875 L 8.703125 0 L 1.171875 0 Z M 1.171875 -1.875 "/></g></g></g><g fill="#000000" fill-opacity="1"><g transform="translate(280.064944, 72.453305)"><g><path d="M 7.953125 0.453125 C 6.648438 0.453125 5.460938 0.160156 4.390625 -0.421875 C 3.316406 -1.003906 2.460938 -1.84375 1.828125 -2.9375 C 1.203125 -4.039062 0.890625 -5.351562 0.890625 -6.875 C 0.890625 -8.300781 1.203125 -9.625 1.828125 -10.84375 C 2.460938 -12.0625 3.347656 -13.03125 4.484375 -13.75 C 5.628906 -14.46875 6.921875 -14.828125 8.359375 -14.828125 C 9.523438 -14.828125 10.523438 -14.644531 11.359375 -14.28125 C 12.191406 -13.914062 12.816406 -13.429688 13.234375 -12.828125 C 13.660156 -12.222656 13.875 -11.578125 13.875 -10.890625 C 13.875 -10.296875 13.695312 -9.785156 13.34375 -9.359375 C 12.988281 -8.941406 12.503906 -8.734375 11.890625 -8.734375 C 11.265625 -8.734375 10.789062 -8.925781 10.46875 -9.3125 C 10.15625 -9.695312 10 -10.128906 10 -10.609375 C 10 -11.046875 10.113281 -11.46875 10.34375 -11.875 C 10.164062 -12.21875 9.882812 -12.457031 9.5 -12.59375 C 9.125 -12.738281 8.742188 -12.8125 8.359375 -12.8125 C 7.378906 -12.8125 6.585938 -12.363281 5.984375 -11.46875 C 5.390625 -10.582031 5.09375 -9.328125 5.09375 -7.703125 C 5.09375 -6.078125 5.40625 -4.734375 6.03125 -3.671875 C 6.664062 -2.617188 7.660156 -2.09375 9.015625 -2.09375 C 9.785156 -2.09375 10.539062 -2.289062 11.28125 -2.6875 C 12.03125 -3.09375 12.664062 -3.632812 13.1875 -4.3125 L 14.515625 -3.015625 C 13.554688 -1.691406 12.53125 -0.78125 11.4375 -0.28125 C 10.34375 0.207031 9.179688 0.453125 7.953125 0.453125 Z M 7.953125 0.453125 "/></g></g></g><g fill="#000000" fill-opacity="1"><g transform="translate(294.943303, 72.453305)"><g><path d="M 5.234375 -17.21875 C 4.578125 -17.21875 4.035156 -17.441406 3.609375 -17.890625 C 3.191406 -18.335938 2.984375 -18.890625 2.984375 -19.546875 C 2.984375 -20.191406 3.203125 -20.75 3.640625 -21.21875 C 4.085938 -21.6875 4.609375 -21.921875 5.203125 -21.921875 C 5.816406 -21.921875 6.328125 -21.691406 6.734375 -21.234375 C 7.148438 -20.773438 7.359375 -20.210938 7.359375 -19.546875 C 7.359375 -18.867188 7.160156 -18.3125 6.765625 -17.875 C 6.367188 -17.4375 5.859375 -17.21875 5.234375 -17.21875 Z M 1.171875 -1.875 C 1.898438 -1.875 2.363281 -2.070312 2.5625 -2.46875 C 2.769531 -2.875 2.875 -3.523438 2.875 -4.421875 L 2.875 -9.1875 C 2.875 -10.09375 2.910156 -10.925781 2.984375 -11.6875 L 0.984375 -11.609375 L 0.984375 -13.796875 C 2.179688 -13.796875 3.15625 -13.878906 3.90625 -14.046875 C 4.65625 -14.222656 5.15625 -14.425781 5.40625 -14.65625 L 6.953125 -14.65625 L 6.953125 -4.625 C 6.953125 -3.707031 6.914062 -2.863281 6.84375 -2.09375 C 7.457031 -2.15625 8.078125 -2.1875 8.703125 -2.1875 L 8.703125 0 L 1.171875 0 Z M 1.171875 -1.875 "/></g></g></g><g fill="#000000" fill-opacity="1"><g transform="translate(304.220696, 72.453305)"><g><path d="M 6.875 0.453125 C 3.882812 0.453125 2.390625 -1.382812 2.390625 -5.0625 L 2.4375 -11.984375 L 0.484375 -11.984375 L 0.484375 -14.375 C 1.097656 -14.375 1.675781 -14.5625 2.21875 -14.9375 C 2.769531 -15.320312 3.234375 -15.789062 3.609375 -16.34375 C 3.992188 -16.90625 4.265625 -17.441406 4.421875 -17.953125 L 6.546875 -17.953125 L 6.515625 -14.375 L 10.171875 -14.375 L 10.171875 -12.15625 L 6.515625 -12.0625 L 6.5 -5 C 6.5 -3.144531 7.070312 -2.21875 8.21875 -2.21875 C 9.132812 -2.21875 10.003906 -2.789062 10.828125 -3.9375 L 12.21875 -2.640625 C 11.3125 -1.316406 10.40625 -0.46875 9.5 -0.09375 C 8.601562 0.269531 7.726562 0.453125 6.875 0.453125 Z M 6.875 0.453125 "/></g></g></g><g fill="#000000" fill-opacity="1"><g transform="translate(316.083172, 72.453305)"><g><path d="M 4.25 7.78125 C 3.5 7.78125 2.875 7.5625 2.375 7.125 C 1.882812 6.6875 1.640625 6.125 1.640625 5.4375 C 1.640625 4.894531 1.816406 4.425781 2.171875 4.03125 C 2.523438 3.644531 2.96875 3.453125 3.5 3.453125 C 3.925781 3.453125 4.273438 3.597656 4.546875 3.890625 C 4.828125 4.191406 4.96875 4.582031 4.96875 5.0625 C 4.96875 5.207031 4.957031 5.332031 4.9375 5.4375 L 4.9375 5.453125 C 5.300781 5.453125 5.707031 4.992188 6.15625 4.078125 C 6.613281 3.160156 7.023438 2.050781 7.390625 0.75 L 2.84375 -8.359375 C 2.34375 -9.316406 2.003906 -10.066406 1.828125 -10.609375 C 1.660156 -11.160156 1.539062 -11.703125 1.46875 -12.234375 L 0.140625 -12.1875 L 0.140625 -14.375 L 7.296875 -14.375 L 7.296875 -12.53125 C 6.492188 -12.4375 6.09375 -12.0625 6.09375 -11.40625 C 6.09375 -11.082031 6.1875 -10.707031 6.375 -10.28125 L 9.1875 -3.84375 L 9.21875 -3.84375 L 9.828125 -5.78125 C 10.035156 -6.507812 10.4375 -7.769531 11.03125 -9.5625 C 11.457031 -10.90625 11.859375 -11.804688 12.234375 -12.265625 L 12.234375 -12.296875 L 10.609375 -12.1875 L 10.609375 -14.375 L 15.71875 -14.375 L 15.71875 -12.53125 C 15.164062 -12.394531 14.6875 -12.046875 14.28125 -11.484375 C 13.875 -10.929688 13.507812 -10.1875 13.1875 -9.25 L 9.59375 1 C 9.019531 2.707031 8.492188 4.03125 8.015625 4.96875 C 7.535156 5.90625 7.003906 6.609375 6.421875 7.078125 C 5.835938 7.546875 5.113281 7.78125 4.25 7.78125 Z M 4.25 7.78125 "/></g></g></g><g fill="#000000" fill-opacity="1"><g transform="translate(331.909377, 72.453305)"><g/></g></g><g fill="#000000" fill-opacity="1"><g transform="translate(339.46345, 72.453305)"><g><path d="M 1.4375 -1.890625 C 1.957031 -1.910156 2.347656 -1.972656 2.609375 -2.078125 C 2.878906 -2.179688 3.09375 -2.40625 3.25 -2.75 C 3.40625 -3.101562 3.484375 -3.648438 3.484375 -4.390625 L 3.484375 -15.40625 C 3.484375 -16.476562 3.519531 -17.335938 3.59375 -17.984375 L 1.4375 -17.90625 L 1.4375 -20.109375 L 15.796875 -20.109375 L 15.96875 -14.546875 L 14.078125 -14.546875 C 14.078125 -15.960938 13.738281 -16.941406 13.0625 -17.484375 C 12.382812 -18.023438 11.566406 -18.28125 10.609375 -18.25 L 9.5625 -18.21875 C 9.101562 -18.195312 8.738281 -18.132812 8.46875 -18.03125 C 8.207031 -17.925781 8.003906 -17.691406 7.859375 -17.328125 C 7.710938 -16.960938 7.640625 -16.425781 7.640625 -15.71875 L 7.640625 -11.40625 L 11 -11.40625 C 10.976562 -11.726562 10.941406 -12.5625 10.890625 -13.90625 L 13.109375 -13.90625 L 13.109375 -6.921875 L 11.203125 -6.921875 C 11.203125 -7.691406 11.082031 -8.257812 10.84375 -8.625 C 10.601562 -8.988281 10.289062 -9.222656 9.90625 -9.328125 C 9.53125 -9.429688 9.023438 -9.472656 8.390625 -9.453125 L 7.640625 -9.421875 L 7.640625 -4.71875 C 7.640625 -3.675781 7.601562 -2.832031 7.53125 -2.1875 L 11.375 -2.1875 C 12.351562 -2.1875 13.179688 -2.515625 13.859375 -3.171875 C 14.546875 -3.835938 14.890625 -4.890625 14.890625 -6.328125 L 16.75 -6.328125 L 16.609375 0 L 1.4375 0 Z M 1.4375 -1.890625 "/></g></g></g><g fill="#000000" fill-opacity="1"><g transform="translate(357.386418, 72.453305)"><g><path d="M 1.15625 -1.84375 C 1.519531 -1.988281 1.863281 -2.207031 2.1875 -2.5 C 2.507812 -2.789062 2.890625 -3.191406 3.328125 -3.703125 L 5.828125 -6.578125 L 3.015625 -9.890625 C 2.960938 -9.941406 2.710938 -10.242188 2.265625 -10.796875 C 1.828125 -11.359375 1.53125 -11.835938 1.375 -12.234375 L 0.609375 -12.1875 L 0.609375 -14.375 L 6.953125 -14.375 L 6.953125 -12.53125 C 6.492188 -12.507812 6.265625 -12.351562 6.265625 -12.0625 C 6.265625 -11.78125 6.46875 -11.410156 6.875 -10.953125 L 8.1875 -9.390625 L 8.21875 -9.390625 L 9.3125 -10.71875 C 9.382812 -10.789062 9.5625 -11 9.84375 -11.34375 C 10.132812 -11.695312 10.425781 -12.003906 10.71875 -12.265625 L 10.71875 -12.296875 L 9.3125 -12.1875 L 9.3125 -14.375 L 14.375 -14.375 L 14.375 -12.53125 C 13.300781 -12.070312 12.34375 -11.304688 11.5 -10.234375 L 9.5625 -7.875 L 12.90625 -4 C 13.570312 -3.207031 14.03125 -2.582031 14.28125 -2.125 L 15.265625 -2.1875 L 15.265625 0 L 8.484375 0 L 8.484375 -1.84375 C 9.128906 -1.863281 9.453125 -2.035156 9.453125 -2.359375 C 9.453125 -2.585938 9.289062 -2.882812 8.96875 -3.25 L 7.234375 -5.0625 L 7.21875 -5.0625 L 5.890625 -3.453125 C 5.734375 -3.253906 5.515625 -3 5.234375 -2.6875 C 4.960938 -2.382812 4.75 -2.1875 4.59375 -2.09375 L 4.59375 -2.0625 L 5.921875 -2.1875 L 5.921875 0 L 1.15625 0 Z M 1.15625 -1.84375 "/></g></g></g><g fill="#000000" fill-opacity="1"><g transform="translate(373.126461, 72.453305)"><g><path d="M 0.890625 5.453125 C 1.617188 5.453125 2.085938 5.25 2.296875 4.84375 C 2.503906 4.445312 2.609375 3.800781 2.609375 2.90625 L 2.609375 -9.25 C 2.609375 -10.113281 2.648438 -10.925781 2.734375 -11.6875 L 0.6875 -11.609375 L 0.6875 -13.796875 C 1.894531 -13.796875 2.867188 -13.878906 3.609375 -14.046875 C 4.359375 -14.222656 4.859375 -14.425781 5.109375 -14.65625 L 6.515625 -14.65625 C 6.554688 -14.332031 6.609375 -13.875 6.671875 -13.28125 L 6.6875 -13.28125 C 7.882812 -14.3125 9.171875 -14.828125 10.546875 -14.828125 C 11.691406 -14.828125 12.703125 -14.53125 13.578125 -13.9375 C 14.453125 -13.34375 15.128906 -12.492188 15.609375 -11.390625 C 16.097656 -10.285156 16.34375 -9.007812 16.34375 -7.5625 C 16.34375 -6.03125 16.046875 -4.65625 15.453125 -3.4375 C 14.859375 -2.21875 14.019531 -1.265625 12.9375 -0.578125 C 11.863281 0.109375 10.625 0.453125 9.21875 0.453125 C 8.476562 0.453125 7.628906 0.28125 6.671875 -0.0625 L 6.671875 2.703125 C 6.671875 3.523438 6.640625 4.367188 6.578125 5.234375 C 7.171875 5.171875 7.785156 5.140625 8.421875 5.140625 L 8.421875 7.328125 L 0.890625 7.328125 Z M 8.65625 -1.703125 C 10.96875 -1.703125 12.125 -3.507812 12.125 -7.125 C 12.125 -8.539062 11.867188 -9.742188 11.359375 -10.734375 C 10.859375 -11.734375 10.097656 -12.234375 9.078125 -12.234375 C 8.597656 -12.234375 8.140625 -12.117188 7.703125 -11.890625 C 7.273438 -11.660156 6.929688 -11.351562 6.671875 -10.96875 L 6.671875 -2.21875 C 6.859375 -2.082031 7.140625 -1.960938 7.515625 -1.859375 C 7.890625 -1.753906 8.269531 -1.703125 8.65625 -1.703125 Z M 8.65625 -1.703125 "/></g></g></g><g fill="#000000" fill-opacity="1"><g transform="translate(390.273863, 72.453305)"><g><path d="M 0.71875 -1.875 C 1.238281 -1.875 1.617188 -1.972656 1.859375 -2.171875 C 2.097656 -2.367188 2.25 -2.640625 2.3125 -2.984375 C 2.375 -3.328125 2.40625 -3.804688 2.40625 -4.421875 L 2.40625 -16.234375 C 2.40625 -17.148438 2.445312 -17.984375 2.53125 -18.734375 L 0.515625 -18.65625 L 0.515625 -20.828125 C 1.722656 -20.828125 2.695312 -20.910156 3.4375 -21.078125 C 4.1875 -21.253906 4.6875 -21.457031 4.9375 -21.6875 L 6.5 -21.6875 L 6.5 -4.625 C 6.5 -3.707031 6.457031 -2.863281 6.375 -2.09375 C 7.007812 -2.15625 7.632812 -2.1875 8.25 -2.1875 L 8.25 0 L 0.71875 0 Z M 0.71875 -1.875 "/></g></g></g><g fill="#000000" fill-opacity="1"><g transform="translate(399.235342, 72.453305)"><g><path d="M 8.21875 0.453125 C 6.820312 0.453125 5.566406 0.15625 4.453125 -0.4375 C 3.335938 -1.03125 2.460938 -1.878906 1.828125 -2.984375 C 1.203125 -4.097656 0.890625 -5.394531 0.890625 -6.875 C 0.890625 -8.414062 1.210938 -9.789062 1.859375 -11 C 2.515625 -12.207031 3.394531 -13.144531 4.5 -13.8125 C 5.601562 -14.488281 6.8125 -14.828125 8.125 -14.828125 C 9.507812 -14.828125 10.742188 -14.53125 11.828125 -13.9375 C 12.921875 -13.34375 13.785156 -12.484375 14.421875 -11.359375 C 15.054688 -10.242188 15.375 -8.9375 15.375 -7.4375 C 15.375 -5.851562 15.070312 -4.46875 14.46875 -3.28125 C 13.863281 -2.09375 13.019531 -1.171875 11.9375 -0.515625 C 10.851562 0.128906 9.613281 0.453125 8.21875 0.453125 Z M 8.28125 -1.578125 C 9.332031 -1.578125 10.066406 -2.066406 10.484375 -3.046875 C 10.910156 -4.023438 11.125 -5.25 11.125 -6.71875 C 11.125 -8.363281 10.882812 -9.789062 10.40625 -11 C 9.925781 -12.207031 9.164062 -12.8125 8.125 -12.8125 C 7.070312 -12.8125 6.304688 -12.3125 5.828125 -11.3125 C 5.347656 -10.320312 5.109375 -9.097656 5.109375 -7.640625 C 5.109375 -5.972656 5.367188 -4.546875 5.890625 -3.359375 C 6.410156 -2.171875 7.207031 -1.578125 8.28125 -1.578125 Z M 8.28125 -1.578125 "/></g></g></g><g fill="#000000" fill-opacity="1"><g transform="translate(415.492383, 72.453305)"><g><path d="M 1.171875 -1.875 C 1.898438 -1.875 2.363281 -2.070312 2.5625 -2.46875 C 2.769531 -2.875 2.875 -3.523438 2.875 -4.421875 L 2.875 -9.25 C 2.875 -10.113281 2.910156 -10.925781 2.984375 -11.6875 L 0.984375 -11.609375 L 0.984375 -13.796875 C 2.179688 -13.796875 3.15625 -13.878906 3.90625 -14.046875 C 4.65625 -14.222656 5.15625 -14.425781 5.40625 -14.65625 L 6.8125 -14.65625 C 6.851562 -14.363281 6.878906 -13.988281 6.890625 -13.53125 C 6.910156 -13.070312 6.921875 -12.625 6.921875 -12.1875 L 6.984375 -12.1875 C 8.285156 -13.945312 9.664062 -14.828125 11.125 -14.828125 C 11.851562 -14.828125 12.453125 -14.625 12.921875 -14.21875 C 13.390625 -13.820312 13.625 -13.226562 13.625 -12.4375 C 13.625 -11.9375 13.457031 -11.476562 13.125 -11.0625 C 12.800781 -10.644531 12.316406 -10.4375 11.671875 -10.4375 C 11.191406 -10.4375 10.765625 -10.554688 10.390625 -10.796875 C 10.015625 -11.046875 9.796875 -11.476562 9.734375 -12.09375 C 9.203125 -12.09375 8.648438 -11.78125 8.078125 -11.15625 C 7.515625 -10.539062 7.140625 -9.925781 6.953125 -9.3125 L 6.953125 -4.625 C 6.953125 -3.707031 6.914062 -2.863281 6.84375 -2.09375 C 7.457031 -2.15625 8.078125 -2.1875 8.703125 -2.1875 L 8.703125 0 L 1.171875 0 Z M 1.171875 -1.875 "/></g></g></g><g fill="#000000" fill-opacity="1"><g transform="translate(429.04942, 72.453305)"><g><path d="M 7.984375 0.453125 C 6.585938 0.453125 5.351562 0.144531 4.28125 -0.46875 C 3.207031 -1.09375 2.375 -1.976562 1.78125 -3.125 C 1.1875 -4.28125 0.890625 -5.625 0.890625 -7.15625 C 0.890625 -8.5 1.191406 -9.757812 1.796875 -10.9375 C 2.398438 -12.113281 3.25 -13.054688 4.34375 -13.765625 C 5.4375 -14.472656 6.679688 -14.828125 8.078125 -14.828125 C 9.929688 -14.828125 11.472656 -14.28125 12.703125 -13.1875 C 13.941406 -12.09375 14.554688 -10.273438 14.546875 -7.734375 L 5.109375 -7.5625 C 5.109375 -5.875 5.429688 -4.539062 6.078125 -3.5625 C 6.722656 -2.582031 7.753906 -2.09375 9.171875 -2.09375 C 9.835938 -2.09375 10.550781 -2.265625 11.3125 -2.609375 C 12.082031 -2.953125 12.773438 -3.5 13.390625 -4.25 L 14.6875 -3.046875 C 13.050781 -0.710938 10.816406 0.453125 7.984375 0.453125 Z M 10.578125 -9.5625 C 10.515625 -11.726562 9.726562 -12.8125 8.21875 -12.8125 C 7.394531 -12.8125 6.738281 -12.519531 6.25 -11.9375 C 5.757812 -11.351562 5.4375 -10.5625 5.28125 -9.5625 Z M 10.578125 -9.5625 "/></g></g></g><g fill="#000000" fill-opacity="1"><g transform="translate(444.502239, 72.453305)"><g><path d="M 1.171875 -1.875 C 1.898438 -1.875 2.363281 -2.070312 2.5625 -2.46875 C 2.769531 -2.875 2.875 -3.523438 2.875 -4.421875 L 2.875 -9.25 C 2.875 -10.113281 2.910156 -10.925781 2.984375 -11.6875 L 0.984375 -11.609375 L 0.984375 -13.796875 C 2.179688 -13.796875 3.15625 -13.878906 3.90625 -14.046875 C 4.65625 -14.222656 5.15625 -14.425781 5.40625 -14.65625 L 6.8125 -14.65625 C 6.851562 -14.363281 6.878906 -13.988281 6.890625 -13.53125 C 6.910156 -13.070312 6.921875 -12.625 6.921875 -12.1875 L 6.984375 -12.1875 C 8.285156 -13.945312 9.664062 -14.828125 11.125 -14.828125 C 11.851562 -14.828125 12.453125 -14.625 12.921875 -14.21875 C 13.390625 -13.820312 13.625 -13.226562 13.625 -12.4375 C 13.625 -11.9375 13.457031 -11.476562 13.125 -11.0625 C 12.800781 -10.644531 12.316406 -10.4375 11.671875 -10.4375 C 11.191406 -10.4375 10.765625 -10.554688 10.390625 -10.796875 C 10.015625 -11.046875 9.796875 -11.476562 9.734375 -12.09375 C 9.203125 -12.09375 8.648438 -11.78125 8.078125 -11.15625 C 7.515625 -10.539062 7.140625 -9.925781 6.953125 -9.3125 L 6.953125 -4.625 C 6.953125 -3.707031 6.914062 -2.863281 6.84375 -2.09375 C 7.457031 -2.15625 8.078125 -2.1875 8.703125 -2.1875 L 8.703125 0 L 1.171875 0 Z M 1.171875 -1.875 "/></g></g></g><g fill="#000000" fill-opacity="1"><g transform="translate(458.289141, 72.453305)"><g/></g></g><g fill="#000000" fill-opacity="1"><g transform="translate(465.843225, 72.453305)"><g><path d="M 1.4375 -1.890625 C 1.957031 -1.910156 2.347656 -1.972656 2.609375 -2.078125 C 2.878906 -2.179688 3.09375 -2.40625 3.25 -2.75 C 3.40625 -3.101562 3.484375 -3.648438 3.484375 -4.390625 L 3.484375 -15.40625 C 3.484375 -16.476562 3.519531 -17.335938 3.59375 -17.984375 L 1.4375 -17.90625 L 1.4375 -20.109375 L 9.390625 -20.171875 C 11.691406 -20.191406 13.492188 -19.78125 14.796875 -18.9375 C 16.097656 -18.09375 16.75 -16.859375 16.75 -15.234375 C 16.75 -14.296875 16.398438 -13.425781 15.703125 -12.625 C 15.003906 -11.832031 13.972656 -11.253906 12.609375 -10.890625 L 12.609375 -10.859375 C 14.453125 -10.578125 15.84375 -9.960938 16.78125 -9.015625 C 17.71875 -8.078125 18.1875 -6.976562 18.1875 -5.71875 C 18.1875 -3.894531 17.539062 -2.484375 16.25 -1.484375 C 14.957031 -0.492188 13.273438 0 11.203125 0 L 1.4375 0 Z M 9.140625 -11.328125 C 10.265625 -11.335938 11.082031 -11.691406 11.59375 -12.390625 C 12.101562 -13.097656 12.359375 -14.023438 12.359375 -15.171875 C 12.359375 -16.203125 12.066406 -16.957031 11.484375 -17.4375 C 10.910156 -17.914062 10.210938 -18.15625 9.390625 -18.15625 C 8.992188 -18.15625 8.675781 -18.109375 8.4375 -18.015625 C 8.195312 -17.921875 8.003906 -17.695312 7.859375 -17.34375 C 7.710938 -16.988281 7.640625 -16.457031 7.640625 -15.75 L 7.640625 -11.296875 Z M 7.53125 -2.046875 C 8.789062 -2.046875 9.71875 -2.050781 10.3125 -2.0625 C 11.445312 -2.125 12.289062 -2.484375 12.84375 -3.140625 C 13.394531 -3.804688 13.671875 -4.691406 13.671875 -5.796875 C 13.671875 -7.023438 13.316406 -7.910156 12.609375 -8.453125 C 11.898438 -9.003906 11.019531 -9.28125 9.96875 -9.28125 C 8.914062 -9.28125 8.140625 -9.269531 7.640625 -9.25 L 7.640625 -4.5625 C 7.640625 -3.53125 7.601562 -2.691406 7.53125 -2.046875 Z M 7.53125 -2.046875 "/></g></g></g><g fill="#000000" fill-opacity="1"><g transform="translate(484.828927, 72.453305)"><g><path d="M 4.765625 0.453125 C 3.554688 0.453125 2.601562 0.09375 1.90625 -0.625 C 1.207031 -1.34375 0.859375 -2.253906 0.859375 -3.359375 C 0.859375 -5.046875 1.644531 -6.320312 3.21875 -7.1875 C 4.789062 -8.0625 6.675781 -8.550781 8.875 -8.65625 L 8.875 -10.140625 C 8.875 -11.890625 8.222656 -12.765625 6.921875 -12.765625 C 6.078125 -12.765625 5.390625 -12.492188 4.859375 -11.953125 C 5.085938 -11.679688 5.203125 -11.316406 5.203125 -10.859375 C 5.203125 -10.398438 5.039062 -9.988281 4.71875 -9.625 C 4.40625 -9.257812 3.941406 -9.078125 3.328125 -9.078125 C 2.753906 -9.078125 2.304688 -9.265625 1.984375 -9.640625 C 1.660156 -10.015625 1.5 -10.476562 1.5 -11.03125 C 1.5 -11.78125 1.765625 -12.441406 2.296875 -13.015625 C 2.835938 -13.585938 3.570312 -14.03125 4.5 -14.34375 C 5.425781 -14.664062 6.445312 -14.828125 7.5625 -14.828125 C 11.101562 -14.828125 12.875 -13 12.875 -9.34375 L 12.84375 -4.625 C 12.84375 -3.707031 12.804688 -2.863281 12.734375 -2.09375 C 13.359375 -2.15625 13.976562 -2.1875 14.59375 -2.1875 L 14.59375 0 L 9.171875 0 C 9.128906 -0.25 9.085938 -0.691406 9.046875 -1.328125 L 9.015625 -1.328125 C 7.847656 -0.140625 6.429688 0.453125 4.765625 0.453125 Z M 6.578125 -2.359375 C 7.441406 -2.359375 8.195312 -2.703125 8.84375 -3.390625 L 8.84375 -6.609375 C 7.71875 -6.492188 6.785156 -6.207031 6.046875 -5.75 C 5.304688 -5.289062 4.9375 -4.664062 4.9375 -3.875 C 4.9375 -3.363281 5.09375 -2.984375 5.40625 -2.734375 C 5.726562 -2.484375 6.117188 -2.359375 6.578125 -2.359375 Z M 6.578125 -2.359375 "/></g></g></g><g fill="#000000" fill-opacity="1"><g transform="translate(499.879623, 72.453305)"><g><path d="M 6.71875 0.453125 C 5.570312 0.453125 4.5625 0.15625 3.6875 -0.4375 C 2.820312 -1.03125 2.144531 -1.875 1.65625 -2.96875 C 1.164062 -4.070312 0.921875 -5.351562 0.921875 -6.8125 C 0.921875 -8.34375 1.21875 -9.71875 1.8125 -10.9375 C 2.40625 -12.15625 3.242188 -13.109375 4.328125 -13.796875 C 5.410156 -14.484375 6.648438 -14.828125 8.046875 -14.828125 C 8.796875 -14.828125 9.648438 -14.65625 10.609375 -14.3125 L 10.609375 -16.203125 C 10.609375 -17.117188 10.644531 -17.960938 10.71875 -18.734375 C 10.082031 -18.679688 9.398438 -18.65625 8.671875 -18.65625 L 8.671875 -20.828125 C 9.878906 -20.828125 10.859375 -20.910156 11.609375 -21.078125 C 12.359375 -21.253906 12.859375 -21.457031 13.109375 -21.6875 L 14.65625 -21.6875 L 14.65625 -4.625 C 14.65625 -3.707031 14.617188 -2.863281 14.546875 -2.09375 C 15.171875 -2.15625 15.789062 -2.1875 16.40625 -2.1875 L 16.40625 0 L 10.953125 0 L 10.796875 -1.328125 L 10.78125 -1.328125 C 9.644531 -0.140625 8.289062 0.453125 6.71875 0.453125 Z M 8.21875 -2.15625 C 8.695312 -2.15625 9.144531 -2.28125 9.5625 -2.53125 C 9.988281 -2.78125 10.335938 -3.113281 10.609375 -3.53125 L 10.609375 -12.15625 C 10.390625 -12.3125 10.085938 -12.441406 9.703125 -12.546875 C 9.328125 -12.648438 8.945312 -12.703125 8.5625 -12.703125 C 7.332031 -12.679688 6.453125 -12.148438 5.921875 -11.109375 C 5.398438 -10.078125 5.140625 -8.785156 5.140625 -7.234375 C 5.140625 -5.859375 5.394531 -4.664062 5.90625 -3.65625 C 6.414062 -2.65625 7.1875 -2.15625 8.21875 -2.15625 Z M 8.21875 -2.15625 "/></g></g></g><g fill="#000000" fill-opacity="1"><g transform="translate(516.998358, 72.453305)"><g><path d="M 7.359375 7.78125 C 5.035156 7.78125 3.359375 7.425781 2.328125 6.71875 C 1.304688 6.007812 0.796875 5.109375 0.796875 4.015625 C 0.796875 3.347656 1.007812 2.722656 1.4375 2.140625 C 1.875 1.554688 2.570312 1.082031 3.53125 0.71875 C 2.78125 0.507812 2.238281 0.1875 1.90625 -0.25 C 1.570312 -0.695312 1.40625 -1.21875 1.40625 -1.8125 C 1.40625 -2.382812 1.628906 -2.96875 2.078125 -3.5625 C 2.535156 -4.15625 3.238281 -4.597656 4.1875 -4.890625 L 4.1875 -4.90625 C 3.332031 -5.257812 2.648438 -5.800781 2.140625 -6.53125 C 1.628906 -7.269531 1.375 -8.148438 1.375 -9.171875 C 1.375 -10.242188 1.675781 -11.207031 2.28125 -12.0625 C 2.882812 -12.925781 3.679688 -13.601562 4.671875 -14.09375 C 5.660156 -14.582031 6.695312 -14.828125 7.78125 -14.828125 C 8.363281 -14.828125 8.96875 -14.753906 9.59375 -14.609375 C 10.226562 -14.460938 10.765625 -14.238281 11.203125 -13.9375 C 11.566406 -14.9375 12.054688 -15.765625 12.671875 -16.421875 C 13.285156 -17.078125 14.015625 -17.40625 14.859375 -17.40625 C 15.484375 -17.40625 15.96875 -17.242188 16.3125 -16.921875 C 16.664062 -16.597656 16.84375 -16.148438 16.84375 -15.578125 C 16.84375 -15.128906 16.703125 -14.722656 16.421875 -14.359375 C 16.140625 -14.003906 15.703125 -13.828125 15.109375 -13.828125 C 14.804688 -13.828125 14.503906 -13.9375 14.203125 -14.15625 C 13.910156 -14.375 13.734375 -14.632812 13.671875 -14.9375 C 13.421875 -14.863281 13.171875 -14.617188 12.921875 -14.203125 C 12.679688 -13.796875 12.539062 -13.421875 12.5 -13.078125 C 13.03125 -12.597656 13.441406 -12.039062 13.734375 -11.40625 C 14.035156 -10.769531 14.1875 -10.09375 14.1875 -9.375 C 14.1875 -8.300781 13.878906 -7.328125 13.265625 -6.453125 C 12.660156 -5.578125 11.859375 -4.894531 10.859375 -4.40625 C 9.867188 -3.914062 8.804688 -3.671875 7.671875 -3.671875 L 6.875 -3.703125 C 6.445312 -3.742188 6.140625 -3.765625 5.953125 -3.765625 C 5.523438 -3.765625 5.164062 -3.6875 4.875 -3.53125 C 4.59375 -3.375 4.453125 -3.164062 4.453125 -2.90625 C 4.453125 -2.5625 4.710938 -2.316406 5.234375 -2.171875 C 5.765625 -2.023438 6.726562 -1.914062 8.125 -1.84375 C 10.539062 -1.707031 12.367188 -1.300781 13.609375 -0.625 C 14.859375 0.0390625 15.484375 1.160156 15.484375 2.734375 C 15.484375 3.765625 15.085938 4.660156 14.296875 5.421875 C 13.503906 6.191406 12.476562 6.773438 11.21875 7.171875 C 9.96875 7.578125 8.679688 7.78125 7.359375 7.78125 Z M 7.78125 -5.609375 C 8.507812 -5.609375 9.085938 -5.929688 9.515625 -6.578125 C 9.953125 -7.234375 10.171875 -7.988281 10.171875 -8.84375 C 10.171875 -9.9375 9.957031 -10.882812 9.53125 -11.6875 C 9.113281 -12.5 8.523438 -12.90625 7.765625 -12.90625 C 7.035156 -12.90625 6.445312 -12.566406 6 -11.890625 C 5.5625 -11.222656 5.34375 -10.429688 5.34375 -9.515625 C 5.34375 -8.441406 5.5625 -7.519531 6 -6.75 C 6.445312 -5.988281 7.039062 -5.609375 7.78125 -5.609375 Z M 8.1875 5.796875 C 9.050781 5.796875 9.789062 5.679688 10.40625 5.453125 C 11.03125 5.222656 11.503906 4.929688 11.828125 4.578125 C 12.160156 4.222656 12.328125 3.863281 12.328125 3.5 C 12.328125 2.90625 11.984375 2.457031 11.296875 2.15625 C 10.617188 1.851562 9.582031 1.671875 8.1875 1.609375 C 8.03125 1.585938 7.78125 1.578125 7.4375 1.578125 C 7.25 1.554688 6.914062 1.53125 6.4375 1.5 C 5.957031 1.476562 5.566406 1.4375 5.265625 1.375 C 4.972656 1.601562 4.742188 1.898438 4.578125 2.265625 C 4.421875 2.628906 4.34375 2.992188 4.34375 3.359375 C 4.34375 4.109375 4.691406 4.703125 5.390625 5.140625 C 6.085938 5.578125 7.019531 5.796875 8.1875 5.796875 Z M 8.1875 5.796875 "/></g></g></g><g fill="#000000" fill-opacity="1"><g transform="translate(532.795781, 72.453305)"><g><path d="M 7.984375 0.453125 C 6.585938 0.453125 5.351562 0.144531 4.28125 -0.46875 C 3.207031 -1.09375 2.375 -1.976562 1.78125 -3.125 C 1.1875 -4.28125 0.890625 -5.625 0.890625 -7.15625 C 0.890625 -8.5 1.191406 -9.757812 1.796875 -10.9375 C 2.398438 -12.113281 3.25 -13.054688 4.34375 -13.765625 C 5.4375 -14.472656 6.679688 -14.828125 8.078125 -14.828125 C 9.929688 -14.828125 11.472656 -14.28125 12.703125 -13.1875 C 13.941406 -12.09375 14.554688 -10.273438 14.546875 -7.734375 L 5.109375 -7.5625 C 5.109375 -5.875 5.429688 -4.539062 6.078125 -3.5625 C 6.722656 -2.582031 7.753906 -2.09375 9.171875 -2.09375 C 9.835938 -2.09375 10.550781 -2.265625 11.3125 -2.609375 C 12.082031 -2.953125 12.773438 -3.5 13.390625 -4.25 L 14.6875 -3.046875 C 13.050781 -0.710938 10.816406 0.453125 7.984375 0.453125 Z M 10.578125 -9.5625 C 10.515625 -11.726562 9.726562 -12.8125 8.21875 -12.8125 C 7.394531 -12.8125 6.738281 -12.519531 6.25 -11.9375 C 5.757812 -11.351562 5.4375 -10.5625 5.28125 -9.5625 Z M 10.578125 -9.5625 "/></g></g></g><g fill="#000000" fill-opacity="1"><g transform="translate(548.2486, 72.453305)"><g><path d="M 7.78125 0.453125 C 6.957031 0.453125 6.148438 0.347656 5.359375 0.140625 C 4.578125 -0.0664062 3.96875 -0.332031 3.53125 -0.65625 L 3.5 -0.65625 L 3.59375 0.203125 L 1.40625 0.203125 L 1.296875 -4.734375 L 3.15625 -4.734375 C 3.25 -3.859375 3.710938 -3.117188 4.546875 -2.515625 C 5.378906 -1.910156 6.398438 -1.609375 7.609375 -1.609375 C 8.148438 -1.609375 8.613281 -1.734375 9 -1.984375 C 9.394531 -2.234375 9.59375 -2.585938 9.59375 -3.046875 C 9.59375 -3.390625 9.46875 -3.675781 9.21875 -3.90625 C 8.96875 -4.132812 8.671875 -4.328125 8.328125 -4.484375 C 7.984375 -4.640625 7.296875 -4.914062 6.265625 -5.3125 C 5.035156 -5.789062 4.113281 -6.179688 3.5 -6.484375 C 2.894531 -6.796875 2.347656 -7.253906 1.859375 -7.859375 C 1.367188 -8.460938 1.125 -9.242188 1.125 -10.203125 C 1.125 -10.984375 1.316406 -11.722656 1.703125 -12.421875 C 2.097656 -13.117188 2.703125 -13.691406 3.515625 -14.140625 C 4.328125 -14.597656 5.328125 -14.828125 6.515625 -14.828125 C 7.078125 -14.828125 7.679688 -14.738281 8.328125 -14.5625 C 8.984375 -14.394531 9.53125 -14.15625 9.96875 -13.84375 L 10 -13.84375 L 9.96875 -14.6875 L 12.15625 -14.6875 L 12.15625 -9.59375 L 10.28125 -9.59375 C 10.113281 -10.59375 9.675781 -11.378906 8.96875 -11.953125 C 8.257812 -12.523438 7.382812 -12.8125 6.34375 -12.8125 C 5.8125 -12.8125 5.363281 -12.6875 5 -12.4375 C 4.632812 -12.1875 4.453125 -11.804688 4.453125 -11.296875 C 4.453125 -10.753906 4.660156 -10.351562 5.078125 -10.09375 C 5.503906 -9.84375 6.21875 -9.550781 7.21875 -9.21875 C 7.332031 -9.195312 7.578125 -9.125 7.953125 -9 C 9.585938 -8.414062 10.835938 -7.738281 11.703125 -6.96875 C 12.578125 -6.207031 13.015625 -5.207031 13.015625 -3.96875 C 13.015625 -3.007812 12.769531 -2.195312 12.28125 -1.53125 C 11.789062 -0.875 11.148438 -0.378906 10.359375 -0.046875 C 9.566406 0.285156 8.707031 0.453125 7.78125 0.453125 Z M 7.78125 0.453125 "/></g></g></g><path fill="#d9d9d9" d="M 689.953125 136.542969 C 689.953125 136 689.972656 135.464844 690.007812 134.933594 C 689.992188 134.929688 689.972656 134.925781 689.953125 134.925781 L 654.359375 135.007812 L 618.765625 134.921875 C 618.746094 134.925781 618.765625 136 618.765625 136.542969 C 618.765625 148.476562 609.65625 158.285156 598.011719 159.398438 C 602.5 207.921875 621.828125 240.261719 654.082031 259.054688 C 654.171875 258.957031 654.265625 258.859375 654.359375 258.761719 C 654.449219 258.859375 654.542969 258.957031 654.632812 259.054688 C 686.890625 240.261719 706.21875 207.921875 710.707031 159.398438 C 699.0625 158.285156 689.953125 148.476562 689.953125 136.542969 Z M 689.953125 136.542969 " fill-opacity="1" fill-rule="nonzero"/><g clip-path="url(#a857b27d01)"><path fill="#a6a6a6" d="M 654.082031 261.042969 C 653.738281 261.042969 653.394531 260.953125 653.082031 260.773438 C 636.511719 251.117188 623.332031 237.859375 613.910156 221.363281 C 604.28125 204.503906 598.265625 183.71875 596.035156 159.582031 C 595.933594 158.492188 596.734375 157.527344 597.824219 157.421875 C 602.988281 156.929688 607.769531 154.539062 611.289062 150.691406 C 614.828125 146.816406 616.78125 141.792969 616.78125 136.542969 C 616.78125 136.363281 616.777344 136.132812 616.773438 135.898438 C 616.773438 135.652344 616.769531 135.40625 616.769531 135.222656 C 616.769531 133.414062 617.953125 133.035156 618.460938 132.960938 C 618.566406 132.945312 618.664062 132.9375 618.769531 132.9375 L 654.367188 133.023438 L 689.949219 132.9375 C 690.039062 132.9375 690.152344 132.945312 690.253906 132.960938 L 690.3125 132.96875 C 691.332031 133.125 692.0625 134.039062 691.988281 135.066406 C 691.953125 135.566406 691.9375 136.066406 691.9375 136.542969 C 691.9375 141.792969 693.886719 146.816406 697.425781 150.691406 C 700.945312 154.539062 705.726562 156.929688 710.894531 157.421875 C 711.980469 157.527344 712.785156 158.492188 712.679688 159.582031 C 710.449219 183.71875 704.4375 204.503906 694.808594 221.363281 C 685.382812 237.859375 672.207031 251.117188 655.636719 260.773438 C 655.238281 261.003906 654.789062 261.082031 654.359375 261.023438 C 654.269531 261.035156 654.171875 261.042969 654.082031 261.042969 Z M 654.359375 256.777344 C 654.433594 256.777344 654.503906 256.78125 654.574219 256.789062 C 670.09375 247.539062 682.464844 234.960938 691.363281 219.390625 C 700.457031 203.46875 706.234375 183.867188 708.546875 161.109375 C 703.160156 160.15625 698.230469 157.453125 694.5 153.371094 C 690.371094 148.855469 688.0625 143.023438 687.972656 136.914062 L 654.367188 136.996094 L 620.75 136.914062 C 620.660156 143.023438 618.351562 148.851562 614.226562 153.371094 C 610.492188 157.449219 605.5625 160.15625 600.175781 161.109375 C 602.488281 183.867188 608.269531 203.46875 617.359375 219.390625 C 626.253906 234.960938 638.625 247.539062 654.148438 256.789062 C 654.214844 256.777344 654.285156 256.777344 654.359375 256.777344 Z M 654.359375 256.777344 " fill-opacity="1" fill-rule="nonzero"/></g><path fill="#d9d9d9" d="M 554.28125 136.542969 C 554.28125 136 554.300781 135.464844 554.335938 134.933594 C 554.320312 134.929688 554.296875 134.925781 554.28125 134.925781 L 518.6875 135.007812 L 483.09375 134.921875 C 483.074219 134.925781 483.09375 136 483.09375 136.542969 C 483.09375 148.476562 473.984375 158.285156 462.339844 159.398438 C 466.824219 207.921875 486.152344 240.261719 518.410156 259.054688 C 518.5 258.957031 518.59375 258.859375 518.683594 258.761719 C 518.777344 258.859375 518.871094 258.957031 518.960938 259.054688 C 551.21875 240.261719 570.546875 207.921875 575.03125 159.398438 C 563.386719 158.285156 554.28125 148.476562 554.28125 136.542969 Z M 554.28125 136.542969 " fill-opacity="1" fill-rule="nonzero"/><g clip-path="url(#cdbe9fb6b9)"><path fill="#a6a6a6" d="M 518.410156 261.042969 C 518.066406 261.042969 517.722656 260.953125 517.410156 260.773438 C 500.839844 251.117188 487.660156 237.859375 478.238281 221.363281 C 468.609375 204.503906 462.59375 183.71875 460.359375 159.582031 C 460.261719 158.492188 461.0625 157.527344 462.148438 157.421875 C 467.316406 156.929688 472.097656 154.539062 475.617188 150.691406 C 479.15625 146.816406 481.105469 141.792969 481.105469 136.542969 C 481.105469 136.363281 481.105469 136.132812 481.101562 135.898438 C 481.097656 135.652344 481.097656 135.40625 481.097656 135.222656 C 481.097656 133.414062 482.28125 133.035156 482.789062 132.960938 C 482.890625 132.945312 482.992188 132.9375 483.097656 132.9375 L 518.691406 133.023438 L 554.273438 132.9375 C 554.367188 132.9375 554.480469 132.945312 554.582031 132.960938 L 554.640625 132.96875 C 555.660156 133.125 556.390625 134.039062 556.316406 135.066406 C 556.28125 135.566406 556.265625 136.066406 556.265625 136.542969 C 556.265625 141.792969 558.214844 146.816406 561.753906 150.691406 C 565.273438 154.539062 570.050781 156.929688 575.21875 157.421875 C 576.308594 157.527344 577.109375 158.492188 577.007812 159.582031 C 574.777344 183.71875 568.765625 204.503906 559.136719 221.363281 C 549.710938 237.859375 536.53125 251.117188 519.964844 260.773438 C 519.566406 261.003906 519.117188 261.082031 518.683594 261.023438 C 518.59375 261.035156 518.5 261.042969 518.410156 261.042969 Z M 518.6875 256.777344 C 518.757812 256.777344 518.832031 256.78125 518.902344 256.789062 C 534.421875 247.539062 546.792969 234.960938 555.6875 219.390625 C 564.785156 203.46875 570.5625 183.867188 572.875 161.109375 C 567.488281 160.15625 562.558594 157.453125 558.824219 153.371094 C 554.699219 148.855469 552.390625 143.023438 552.300781 136.914062 L 518.691406 136.996094 L 485.078125 136.914062 C 484.988281 143.023438 482.675781 148.851562 478.550781 153.371094 C 474.820312 157.449219 469.890625 160.15625 464.503906 161.109375 C 466.816406 183.867188 472.59375 203.46875 481.6875 219.390625 C 490.582031 234.960938 502.953125 247.539062 518.476562 256.789062 C 518.542969 256.777344 518.613281 256.777344 518.6875 256.777344 C 518.683594 256.777344 518.6875 256.777344 518.6875 256.777344 Z M 518.6875 256.777344 " fill-opacity="1" fill-rule="nonzero"/></g><path fill="#d9d9d9" d="M 418.953125 136.542969 C 418.953125 136 418.972656 135.464844 419.011719 134.933594 C 418.992188 134.929688 418.972656 134.925781 418.953125 134.925781 L 383.359375 135.007812 L 347.765625 134.921875 C 347.746094 134.925781 347.765625 136 347.765625 136.542969 C 347.765625 148.476562 338.65625 158.285156 327.011719 159.398438 C 331.5 207.921875 350.828125 240.261719 383.082031 259.054688 C 383.171875 258.957031 383.265625 258.859375 383.359375 258.761719 C 383.449219 258.859375 383.542969 258.957031 383.636719 259.054688 C 415.890625 240.261719 435.21875 207.921875 439.707031 159.398438 C 428.0625 158.285156 418.953125 148.476562 418.953125 136.542969 Z M 418.953125 136.542969 " fill-opacity="1" fill-rule="nonzero"/><g clip-path="url(#f906660068)"><path fill="#a6a6a6" d="M 383.082031 261.042969 C 382.738281 261.042969 382.394531 260.953125 382.082031 260.773438 C 365.511719 251.117188 352.332031 237.859375 342.910156 221.363281 C 333.28125 204.503906 327.265625 183.71875 325.035156 159.582031 C 324.933594 158.492188 325.734375 157.527344 326.824219 157.421875 C 331.988281 156.929688 336.773438 154.539062 340.289062 150.691406 C 343.832031 146.816406 345.78125 141.792969 345.78125 136.542969 C 345.78125 136.363281 345.777344 136.132812 345.773438 135.898438 C 345.773438 135.652344 345.769531 135.40625 345.769531 135.222656 C 345.769531 133.414062 346.953125 133.035156 347.464844 132.960938 C 347.566406 132.945312 347.664062 132.9375 347.769531 132.9375 L 383.367188 133.023438 L 418.949219 132.9375 C 419.039062 132.9375 419.152344 132.945312 419.253906 132.960938 L 419.3125 132.96875 C 420.332031 133.125 421.0625 134.039062 420.992188 135.066406 C 420.953125 135.566406 420.9375 136.066406 420.9375 136.542969 C 420.9375 141.792969 422.890625 146.816406 426.425781 150.691406 C 429.945312 154.539062 434.726562 156.929688 439.894531 157.421875 C 440.984375 157.527344 441.785156 158.492188 441.683594 159.582031 C 439.449219 183.71875 433.4375 204.503906 423.808594 221.363281 C 414.386719 237.859375 401.207031 251.117188 384.636719 260.773438 C 384.238281 261.003906 383.789062 261.082031 383.359375 261.023438 C 383.269531 261.035156 383.171875 261.042969 383.082031 261.042969 Z M 383.359375 256.777344 C 383.433594 256.777344 383.503906 256.78125 383.574219 256.789062 C 399.09375 247.539062 411.46875 234.960938 420.363281 219.390625 C 429.457031 203.46875 435.234375 183.867188 437.546875 161.109375 C 432.160156 160.15625 427.230469 157.453125 423.5 153.371094 C 419.371094 148.855469 417.0625 143.023438 416.972656 136.914062 L 383.367188 136.996094 L 349.75 136.914062 C 349.660156 143.023438 347.351562 148.851562 343.226562 153.371094 C 339.492188 157.449219 334.5625 160.15625 329.175781 161.109375 C 331.488281 183.867188 337.269531 203.46875 346.363281 219.390625 C 355.253906 234.960938 367.628906 247.539062 383.148438 256.789062 C 383.214844 256.777344 383.285156 256.777344 383.359375 256.777344 Z M 383.359375 256.777344 " fill-opacity="1" fill-rule="nonzero"/></g></svg>